<?xml version="1.0" encoding="UTF-8"?>
<svg id="Layer_1" data-name="Layer 1" xmlns="http://www.w3.org/2000/svg" viewBox="0 0 150 150">
  <defs>
    <style>
      .cls-1 {
        fill: #070605;
      }

      .cls-2 {
        fill: #080504;
      }

      .cls-3 {
        fill: #080505;
      }

      .cls-4 {
        fill: #de231b;
      }

      .cls-5 {
        fill: #e1251a;
      }

      .cls-6 {
        fill: #fcfcfc;
      }
    </style>
  </defs>
  <path class="cls-3" d="M110.59,106.32c-8.59,11.02-21.09,17.15-34.4,17.51s-26.52-5.45-35.52-15.95c-9.05-10.54-13.11-23.81-12.23-37.56,1.34-20.82,15.5-37.92,35.16-42.78,20.71-5.12,42.12,4.13,52.16,22.97,9.53,17.9,7.35,39.74-5.17,55.8Z"/>
  <path class="cls-5" d="M103.05,110.69c-15.3,13.73-37.86,14.37-53.9,1.86-13.63-10.63-20.21-27.82-17.97-45.02,1.73-13.32,8.76-25.03,20.2-32.16,12.6-7.85,27.64-9.28,42.05-2.83,11.56,5.17,21.04,16.2,24.39,29.92,4.23,17.32-1.19,36.05-14.77,48.23Z"/>
  <path class="cls-2" d="M102.51,106.47c-14.67,14.67-37.4,15.25-52.88,1.91-13.05-11.25-18.4-28.95-14.24-45.7,3.11-12.55,12.26-22.48,23.12-27.2,13.13-5.71,27.45-4.26,38.82,3.2,23.25,15.25,24.36,48.63,5.18,67.8Z"/>
  <path class="cls-6" d="M100.38,105.27c-13.46,13-34.02,13.78-48.32,2.12-12.34-10.06-18.04-26.11-14.99-41.74,3.35-17.19,17.59-29.79,34.68-31.2,17.39-1.44,33.67,8.9,39.53,25.7,5.5,15.76,1.22,33.4-10.9,45.12Z"/>
  <g>
    <path class="cls-1" d="M83.13,102.73l-16.72.02c-.69,0-1.32-.2-1.56-.53-.34-.47-.43-1.07-.43-1.77l-.04-15.81-15.81-.09c-1.11,0-1.81-.92-1.81-1.97l.05-16.92c0-.99.77-1.77,1.76-1.77l15.78-.05.07-16.04c0-.91.5-1.94,1.56-1.93l17.34.04c.82,0,1.55.6,1.56,1.45l.14,16.48,16.17.03c1.02,0,1.75.76,1.75,1.79v17.35c-.01,1.11-1.24,1.57-2.2,1.57l-15.78.08-.09,16.66c0,.85-.77,1.41-1.76,1.41Z"/>
    <path class="cls-4" d="M82.64,83.76l-.03,16.54h-15.86s-.15-17.98-.15-17.98l-17.49-.21-.02-15.92,17.49-.13.25-17.93h15.74s.29,17.88.29,17.88l17.83.16-.02,15.96-16.39.05c-.89,0-1.63.49-1.64,1.57Z"/>
  </g>
</svg>