<?xml version="1.0" encoding="UTF-8"?>
<svg id="Layer_1" data-name="Layer 1" xmlns="http://www.w3.org/2000/svg" viewBox="0 0 150 150">
  <defs>
    <style>
      .cls-1 {
        fill: #855706;
      }

      .cls-2 {
        fill: #010101;
      }

      .cls-3 {
        fill: #fdf8ec;
      }

      .cls-4 {
        fill: #fdad12;
      }

      .cls-5 {
        fill: #020100;
      }

      .cls-6 {
        fill: #3f5807;
      }

      .cls-7 {
        fill: #7845a9;
      }

      .cls-8 {
        fill: #9cc31c;
      }

      .cls-9 {
        fill: #fafafa;
      }

      .cls-10 {
        fill: #482073;
      }

      .cls-11 {
        fill: #d9ac6a;
      }

      .cls-12 {
        fill: #010100;
      }

      .cls-13 {
        fill: #6c4509;
      }

      .cls-14 {
        fill: #4c3205;
      }

      .cls-15 {
        fill: #fcfcfc;
      }

      .cls-16 {
        fill: #fdfdfd;
      }
    </style>
  </defs>
  <path class="cls-2" d="M99.46,95.78h-18.69c-1.1-.01-1.8-1.01-1.63-2.01.14-.86.4-1.61.67-2.4.58-1.25,1.75-2.03,3.15-1.96l6.29-.02.02-16.51-21.1-25.94c-.35-.43-.22-1.06-.03-1.44.21-.42.66-.76,1.27-.76h30.09c.05-2.43.82-4.59,2.24-6.46,3.17-4.19,8.88-5.6,13.65-3.38,3.66,1.8,6.15,5.35,6.39,9.43.14,2.38-.41,4.51-1.61,6.49-2.99,4.97-9.24,6.85-14.46,4.17l-14.04,17.85v16.55s6.6.02,6.6.02c1.64,0,2.9,1.26,2.98,2.89v1.73c-.01.98-.74,1.75-1.77,1.75Z"/>
  <g>
    <g>
      <path class="cls-7" d="M91.11,69.57c-.28.27-1.11.17-1.44-.02l-9.01-10.93-3.53-4.41h26.09s-12.12,15.36-12.12,15.36Z"/>
      <polygon class="cls-16" points="104.58 52.49 75.72 52.49 71.5 47.23 108.63 47.23 104.58 52.49"/>
      <path class="cls-9" d="M98.76,93.35l-17.02.02c0-.51.23-1.52.89-1.52h15.6c.64-.01.81,1.09.53,1.49Z"/>
      <path class="cls-10" d="M91.11,69.57c-.22.28-.34.65-.71.88-.27-.32-.53-.59-.73-.9.46-.21.96-.07,1.44.02Z"/>
    </g>
    <g>
      <path class="cls-8" d="M108.04,44.71c-1.08-.12-2.14-.32-3.2-.61-.94-.09-1.85-.41-2.83-.56.6-3.52,3.25-6.15,6.45-6.96,3.56-.9,7.12.44,9.24,3.35,2.02,2.76,2.21,6.3.59,9.27-2.05,3.75-6.44,5.47-10.48,4.02-.31-.11-.15-.72,0-.91l4.2-5.44c.32-.42.19-1.07-.04-1.48s-.71-.63-1.25-.64l-2.67-.05Z"/>
      <path class="cls-6" d="M108.04,44.71c-1.51-.03-1.35.14-2.28-.31-.3-.15-.73-.02-.92-.3.36.04.68.09,1.1.16l1.9.3c.11.02.25.07.2.15Z"/>
    </g>
  </g>
  <path class="cls-12" d="M71.18,112.61c-.91,1.89-2.79,3.49-5.05,3.49l-26.58.05c-1.82,0-3.52-.42-4.87-1.63s-2.03-2.86-2.03-4.68l-.04-29.82c0-.54.16-.89.49-1.31-3-1.37-4.83-4.26-4.89-7.56s1.69-6.14,4.9-7.4c.18-3.01,1.97-5.64,4.4-7,2.83-1.59,6.06-1.45,8.83.09,1.41-2.49,3.64-4.2,6.37-4.93,5.5-1.49,11.08,1.62,12.87,7.04,3.72-.49,7.16,1.48,8.83,4.73,1.95,3.79.94,8.62-2.46,11.25v1.85s4.9,0,4.9,0c4.76,0,9.03,3.69,9.02,8.56l-.03,14.41c0,4.54-3.82,8.24-8.26,8.27l-5.62.03c.03,1.59-.08,3.08-.8,4.55Z"/>
  <path class="cls-3" d="M48.97,72.53c-1.32.73-2.99.96-4.35.27-.37-.19-.67-.46-1.1-.39-.31.05-.85.22-.99.64-.82,2.42-2.98,4.01-5.55,4.08-3.22.08-5.86-2.14-6.3-5.33-.37-2.63,1.05-5.27,3.62-6.09.73-.23,1.19-.57,1.2-1.4.02-2.37,1.46-4.52,3.44-5.52,2.23-1.13,4.81-.9,6.72.64.45.36.77.67,1.41.51.44-.11.74-.46.95-.97.96-2.4,3.08-4.06,5.31-4.66,2.8-.76,5.5-.05,7.54,1.74,1.41,1.24,2.31,2.77,2.67,4.6.13.69.87,1.09,1.53.91,2.57-.68,5.18.27,6.73,2.43,1.63,2.28,1.65,5.33.01,7.62-2.06,2.89-6.07,3.51-8.85,1.33-.41-.32-.66-.63-1.2-.59-.49.04-.75.29-1.11.71-2.51,2.91-7.22,3.06-9.77.13-.49-.57-1.01-1.15-1.9-.66Z"/>
  <path class="cls-11" d="M72.03,102.29l4.41-.13c1.88-.06,3.47-1.65,3.47-3.6l.02-11.86c0-2.05-1.5-3.58-3.52-3.77-1.43-.14-2.84,0-4.39-.06l-.02-3.62h5.33c3.54.02,6.19,3.05,6.17,6.59l-.08,13.8c-.02,3.13-2.64,5.85-5.67,5.87l-5.75.03.04-3.26Z"/>
  <path class="cls-15" d="M77.51,97.89c0,.93-.49,1.75-1.41,1.76l-4.11.04v-14.3s3.89-.02,3.89-.02c.88,0,1.61.66,1.61,1.57l.02,10.95Z"/>
  <g>
    <path class="cls-4" d="M48.48,75.44c.59.03,1.16.2,1.71.5,3.33,2.48,7.73,2.38,11,0,.59-.32,1.09-.3,1.72-.11,1.81.9,3.8,1.06,5.75.69.49-.09.89.25.89.78l-.06,31.87c0,2.43-2,4.35-4.38,4.35h-25.72c-2.25,0-4.21-1.93-4.21-4.21l-.06-29.82c3.5.61,6.57-.82,8.73-3.44.29-.36.58-.6,1.06-.48,1.28.12,2.42.06,3.58-.12Z"/>
    <g>
      <g>
        <path class="cls-5" d="M44.53,105.2c0,.85-.61,1.34-1.25,1.33-.68,0-1.23-.51-1.23-1.28l.02-20.21c0-.75.78-1.18,1.31-1.14.82.06,1.17.64,1.17,1.46v19.84Z"/>
        <path d="M53.78,105.21c0,.83-.58,1.28-1.21,1.31-.57.03-1.3-.37-1.3-1.13v-20.28c-.01-.79.66-1.23,1.29-1.21.72.02,1.23.53,1.23,1.34v19.97Z"/>
        <path d="M63.03,105.2c0,.83-.51,1.3-1.16,1.32s-1.27-.47-1.27-1.25v-20.16c0-.73.57-1.18,1.16-1.21.66-.03,1.26.44,1.26,1.22v20.08Z"/>
      </g>
      <g>
        <path class="cls-13" d="M50.19,75.94c-.59-.07-1.29-.05-1.71-.5.26-.04.57-.32.8-.2.35.2.62.48.91.69Z"/>
        <path class="cls-14" d="M62.91,75.83c-.58.01-1.14.15-1.72.11.27-.2.46-.38.74-.55.37.16.69.29.98.44Z"/>
        <path class="cls-1" d="M44.9,75.56c-.34.19-.69.37-1.06.48.09-.23.19-.47.39-.68.27-.02.48.09.68.2Z"/>
      </g>
    </g>
  </g>
</svg>