<?xml version="1.0" encoding="UTF-8"?>
<svg id="Layer_1" data-name="Layer 1" xmlns="http://www.w3.org/2000/svg" viewBox="0 0 150 150">
  <defs>
    <style>
      .cls-1 {
        fill: #d4e4d3;
      }

      .cls-2 {
        fill: #06866f;
      }

      .cls-3 {
        fill: #078572;
      }

      .cls-4 {
        fill: #077f6b;
      }

      .cls-5 {
        fill: #047c6a;
      }

      .cls-6 {
        fill: #9050a9;
      }

      .cls-7 {
        fill: #048d78;
      }

      .cls-8 {
        fill: #056b5e;
      }

      .cls-9 {
        fill: #08826d;
      }

      .cls-10 {
        fill: #067f6c;
      }

      .cls-11 {
        fill: #08826c;
      }

      .cls-12 {
        fill: #04846e;
      }

      .cls-13 {
        fill: #06826a;
      }

      .cls-14 {
        fill: #038975;
      }

      .cls-15 {
        fill: #0a8578;
      }

      .cls-16 {
        fill: #038373;
      }

      .cls-17 {
        fill: #05806b;
      }

      .cls-18 {
        fill: #06846c;
      }

      .cls-19 {
        fill: #048672;
      }

      .cls-20 {
        fill: #07826c;
      }

      .cls-21 {
        fill: #08876f;
      }

      .cls-22 {
        fill: #068571;
      }

      .cls-23 {
        fill: #088d77;
      }

      .cls-24 {
        fill: #028878;
      }

      .cls-25 {
        fill: #077768;
      }

      .cls-26 {
        fill: #048b74;
      }

      .cls-27 {
        fill: #08836d;
      }

      .cls-28 {
        fill: #020504;
      }

      .cls-29 {
        fill: #058672;
      }

      .cls-30 {
        fill: #02836d;
      }
    </style>
  </defs>
  <path class="cls-28" d="M131.21,124.45c.12,1.16,4.1-.41,4.09,1.76,0,.51-.51,1.26-1.35,1.26l-26.53.02c-1,0-1.63-.53-1.6-1.25.09-2.3,3.8-.37,3.8-2.12v-42c-5.36-2.98-10.71-5.15-16.54-7.28l-36.41.09c-.91,0-1.81-.75-2.58-.5-5.91,1.87-11.28,4.51-16.63,7.58v42.54c.78.65,3.76-.18,3.77,1.65,0,.66-.64,1.27-1.51,1.27H13.65c-1.04,0-1.82-.36-1.8-1.28.05-2.19,3.62-.72,4-1.73l.03-61.98c2.02-1.75,4.13-2.52,6.47-3.9l-.18-31.61c0-.97-1.57-1.79-.59-3.06.51-.65,1.27-1.38,2.59-1.14.99.18,1.54,1.34,1.95,2.62l18.92,5.54c.65.19.9.68.97,1.08.1.55-.27,1.13-.96,1.39l-20.19,7.51.1,16.28c9.73-4.77,19.33-8.06,29.33-11.33.7-2.15-1.09-7.07,2-7.07h35.46c1.03,0,1.41,1.27,1.41,2.06l.18,4.62c8.25,2.42,15.79,5.65,23.86,9.43l-.15-28.1c0-1.02-1.38-1.82-.65-2.93.56-.85,1.14-1.29,2.26-1.35,1.34-.08,1.74,1.35,2.16,2.4l16.28,5.45c.7.23,1.03.63,1.06,1.17.03.71-.39,1.17-1.14,1.45l-17.19,6.57.03,16.67c3.95,2.13,7.67,3.72,11.34,6.24l.02,61.98Z"/>
  <g>
    <rect class="cls-1" x="56.85" y="41.14" width="33.84" height="31.22"/>
    <rect class="cls-30" x="32.67" y="60.16" width="2.45" height="64.83"/>
    <rect class="cls-29" x="112.02" y="60.42" width="2.23" height="64.51"/>
    <path class="cls-14" d="M126.28,124.85v-58.35c-.01-1.17,1.51-1.79,2.42-1.47v59.48c-.78.56-1.52.55-2.42.33Z"/>
    <rect class="cls-26" x="18.17" y="64.8" width="2.54" height="60.19"/>
    <path class="cls-4" d="M30.59,77.85c-2.73.25-5.04.14-7.64.1l.04-12.16c2.5-1.45,4.85-2.65,7.54-3.81l.06,15.87Z"/>
    <path class="cls-27" d="M123.96,77.85c-2.57.32-4.82.16-7.46-.02l-.07-15.65,7.44,3.53.09,12.14Z"/>
    <path class="cls-9" d="M30.31,105.26c-2.96,2.65-3.29,4.23-7.35,3.3v-12.79c1.94-.62,7.41-.27,7.5,1.87.1,2.58.39,5.13-.15,7.62Z"/>
    <path class="cls-6" d="M40.73,32.32l-15.82,5.89c-.26-3.54-.16-6.85-.04-10.61l15.86,4.72Z"/>
    <path class="cls-20" d="M30.53,92.91c0,1.08-1.52.77-2.05.34l-5.49-4.46.08-8.57,7.46.03v12.67Z"/>
    <path class="cls-23" d="M102.14,56.27c-1.45,6.6-.26,6.56-5.42,10.01-.76.51-3.33-.27-3.43-1.16-.46-3.92-.11-7.94-.16-12.04,3.35,1.02,6.07,1.85,9.01,3.19Z"/>
    <path class="cls-18" d="M123.93,108.51c-4.37.49-4.2-.01-7.25-2.8-.56-2.66-.2-5.33-.17-8.11.02-2.18,5.66-2.35,7.44-1.82l-.02,12.74Z"/>
    <path class="cls-2" d="M124.56,63.61c-10.21-4.9-20.47-9.74-31.19-12.89-.62-.19-.32-1.97-.15-2.58,3.7.94,6.95,2.02,10.38,3.46,7.95,3.34,15.65,6.74,23.16,11.04-.52.78-1.27.72-2.19.96Z"/>
    <path class="cls-13" d="M124.12,88.47c-2.19,2.04-4.27,3.95-7.34,5.45-.62-4.69-.34-9-.21-13.57,2.55-.17,4.8-.31,7.31-.1l.24,8.22Z"/>
    <path class="cls-11" d="M30.55,121.66c-2.64.65-4.96.73-7.5.38-.25-2.52-.08-4.82-.06-7.42l4.02-3.66c.87-.79,2.38-.34,3.52-.04l.02,10.73Z"/>
    <path class="cls-3" d="M24.21,62.6c-1.52.75-2.81,1.22-4.13.04,10.73-6.27,21.82-10.32,33.88-14.07.56-.17.65,1.32.57,1.7-.14.61-.72.88-1.59,1.13-9.89,2.86-19.34,6.56-28.72,11.2Z"/>
    <path class="cls-21" d="M123.92,114.41v6.69c-2.23,1.26-4.75,1.34-7.44.71.04-3.55-.36-6.95.15-10.61.13-.97,3.02-.65,3.66.07,1.05,1.2,2.11,2.18,3.62,3.14Z"/>
    <path class="cls-22" d="M109.76,72.16l-10.68-4.62c3.21-3.04,6.51-5.61,10.45-8.51l.23,13.14Z"/>
    <polygon class="cls-17" points="48 67.52 37.39 72.21 37.41 59.3 48 67.52"/>
    <path class="cls-6" d="M133.38,31.75l-13.57,5.17c-.32-3.28-.24-6.13-.02-9.53l13.59,4.36Z"/>
    <path class="cls-10" d="M50.02,66.15c-3.9-2.34-6.67-5.03-10.05-7.89,3.54-1.55,6.65-2.7,10.33-3.71l-.29,11.6Z"/>
    <path class="cls-12" d="M103.61,76.46c-3.46-1.88-6.65-3.06-10.25-4.06-.43-1.55-.48-2.93-.02-4.52,4.79,1.92,9.47,3.46,14.31,5.99-1.18,1.15-2.62,1.53-4.04,2.59Z"/>
    <path class="cls-5" d="M48.13,74.02c-.78-1.07-1-2.13-1.32-3.34,2.47-1.25,4.87-2.04,7.44-2.82.37,1.49.41,2.67.01,4.01l-6.13,2.15Z"/>
    <path class="cls-19" d="M54.37,64.88c0,.96-1.63,1.37-2.11,1.01-.36-3.25.08-6.9.25-10.36l.08-1.55c.02-.4,1.64-.52,1.67-.11.28,3.48.14,7.17.11,11Z"/>
    <path class="cls-5" d="M42.5,76.67c-1.25-.83-2.14-1.78-3.11-2.63,1.94-1.32,3.81-1.95,6.04-2.96.53,1.14.8,2.13,1.72,3.27l-4.65,2.32Z"/>
    <path class="cls-8" d="M30.44,124.88c-1.13-.21-9.34.88-7.25-1.49,2.24.88,4.77.85,7.13-.03.21.27.29,1.04.12,1.52Z"/>
    <path class="cls-25" d="M107.06,58.08c-1.31,1.24-2.49,2.33-4.41,3.38l.8-4.55c1.28.28,2.2.57,3.61,1.17Z"/>
    <path class="cls-7" d="M109.57,79.18c-1.22-.52-2.35-.85-3.45-1.86,1.07-.89,2.11-1.5,3.43-2.21.27,1.44.21,2.34.01,4.07Z"/>
    <path class="cls-15" d="M123.79,124.76c-2.46.25-4.9.36-7.56-.01,2.16-1.45,4.23.03,6.18-1.16.44-.27.89-.81,1.3-.68.32.1.46,1.81.08,1.85Z"/>
    <path class="cls-24" d="M40.51,77.23c-.72.87-1.77,1.42-3.01,1.84-.34-1.43-.39-2.74-.1-4.21,1.26.63,1.82,1.38,3.11,2.37Z"/>
    <path class="cls-16" d="M25.37,93.27c-1.01.48-1.74.41-2.21.17-.37-.18-.38-1.44-.01-1.7.87.03,1.62.96,2.22,1.53Z"/>
    <path class="cls-19" d="M121.83,93.41c.06-.64.91-1.2,1.73-1.61.42-.06.43.78.41,1.09-.03.5-.6,1.07-2.13.52Z"/>
  </g>
</svg>