<?xml version="1.0" encoding="UTF-8"?>
<svg id="Layer_1" data-name="Layer 1" xmlns="http://www.w3.org/2000/svg" viewBox="0 0 150 150">
  <defs>
    <style>
      .cls-1 {
        fill: #0b0911;
      }

      .cls-2 {
        fill: #09070d;
      }

      .cls-3 {
        fill: #514c5e;
      }

      .cls-4 {
        fill: #49445d;
      }

      .cls-5 {
        fill: #060509;
      }

      .cls-6 {
        fill: #7a6aaf;
      }

      .cls-7 {
        fill: #09070e;
      }

      .cls-8 {
        fill: #0c0a12;
      }

      .cls-9 {
        fill: #040405;
      }

      .cls-10 {
        fill: #09080e;
      }

      .cls-11 {
        fill: #0c0a11;
      }

      .cls-12 {
        fill: #fbf9f8;
      }

      .cls-13 {
        fill: #7a6bb0;
      }

      .cls-14 {
        fill: #3e3855;
      }

      .cls-15 {
        fill: #4d4962;
      }

      .cls-16 {
        fill: #07060a;
      }

      .cls-17 {
        fill: #666087;
      }

      .cls-18 {
        fill: #0d0b12;
      }

      .cls-19 {
        fill: #050407;
      }

      .cls-20 {
        fill: #040404;
      }

      .cls-21 {
        fill: #0b0912;
      }

      .cls-22 {
        fill: #0a090f;
      }

      .cls-23 {
        fill: #0b0910;
      }

      .cls-24 {
        fill: #0a080f;
      }

      .cls-25 {
        fill: #f8f7f6;
      }

      .cls-26 {
        fill: #534f68;
      }

      .cls-27 {
        fill: #040406;
      }

      .cls-28 {
        fill: #e8e9e8;
      }

      .cls-29 {
        fill: #7b6cb0;
      }

      .cls-30 {
        fill: #2d2745;
      }

      .cls-31 {
        fill: #040305;
      }

      .cls-32 {
        fill: #0a080e;
      }

      .cls-33 {
        fill: #514a5f;
      }

      .cls-34 {
        fill: #0e0c15;
      }

      .cls-35 {
        fill: #403660;
      }

      .cls-36 {
        fill: #060508;
      }

      .cls-37 {
        fill: #7a6ab0;
      }
    </style>
  </defs>
  <path class="cls-9" d="M115.71,116.64c-.15,3.73-2.45,6.24-6.08,6.23l-78.15-.03c-3.21,0-5.58-2.44-5.58-5.63l.04-84.58c0-3.01,2.51-5.44,5.54-5.44l78.15-.06c3.5.04,5.94,2.49,5.94,5.97l.05,49.59c6.3,4.78,9.25,12.18,8.32,19.91-.68,5.65-3.49,10.59-8.22,14.04Z"/>
  <path class="cls-30" d="M99.62,79.48c-4.82,1.23-8.83,3.75-12.04,8.11-.42-2.88-.18-5.35-.14-8.43,3.99.13,7.64-.51,12.18.31Z"/>
  <path class="cls-35" d="M90.34,115.26c-1.06.41-1.95.33-2.9.11-.15-1.32-.07-2.35.19-3.38l2.71,3.27Z"/>
  <path class="cls-26" d="M112.8,118.26c-.05,2.41-5.38,2.36-6.35,1.92,2.29-.33,4.47-.68,6.35-1.92Z"/>
  <g>
    <rect class="cls-29" x="52.84" y="86.98" width="36.48" height="20.68" transform="translate(-26.26 168.38) rotate(-89.99)"/>
    <path class="cls-10" d="M76.48,88.82c.5,2.12-6.21,1.35-9.37,1.42-.84.02-1.35-.6-1.35-1.14,0-.67.55-1.16,1.39-1.16l8.22.02c.59,0,1.03.48,1.12.86Z"/>
    <path class="cls-1" d="M76.43,85.14c.75,2.12-6.48,1.32-9.24,1.35-.64,0-1.08-.34-1.25-.64-.32-.55.01-1.49.79-1.54,2.13-.15,9.18-.66,9.7.83Z"/>
    <path class="cls-23" d="M75.32,91.63c-.32,0,7.07,2.84-8.93,2-.63-.03-.68-.96-.5-1.3.17-.32.48-.75,1.18-.75l8.24.05Z"/>
    <g>
      <path class="cls-36" d="M66.82,109.74c-.16,1.44-3.98,1.57-4.21.19-.48-2.92-.48-5.81.02-8.73.22-1.29,3.89-1.15,4.12.12.49,2.73.41,5.35.06,8.41Z"/>
      <path class="cls-3" d="M64.4,102.09c1.19-1.66,1.32,8.19.12,6.98-.31-2.27-.08-4.47-.12-6.98Z"/>
    </g>
  </g>
  <g>
    <ellipse class="cls-12" cx="103.92" cy="99.73" rx="17.93" ry="17.93"/>
    <g>
      <path class="cls-20" d="M110.78,111.7l-13.48.06c-1,0-2.19-.78-2.12-1.9.24-4.26-.48-8.57.33-12.7,4.11-.7-.87-8.02,6.26-10.53,2.85-1,6.09-.09,7.8,2.78,1.21,2.02,1.08,4.41.65,6.72.76.4,2.4.52,2.51,1.59.4,3.93.03,7.76.17,11.76.04,1.15-.75,2.24-2.13,2.24Z"/>
      <path class="cls-25" d="M107.97,96.23l-7.75.16c-.66-1.77-.54-3.96.36-5.73.68-1.34,2.16-1.8,3.35-1.81,1.45,0,3.02.61,3.6,2.14s.5,3.05.43,5.24Z"/>
      <path class="cls-28" d="M105.43,103.33c-1.29,2.46-.17,3.66-1,4.2-1.8,1.18-1.03-1.93-1.92-4.21-.28-.73-.04-1.53.36-1.82.59-.44,1.3-.38,1.87-.2.76.24,1.15,1.15.69,2.03Z"/>
    </g>
  </g>
  <g>
    <path class="cls-17" d="M58.54,79.76v35.91c0,.71.47,2.09,1.31,2.09l21.93.06c1.01,0,1.73-.65,1.74-1.54l.25-14.66,1.26,6.01c.84,3.99-1.3,10.19,1.76,10.18l7.21-.03c2.22,1.45,4.71,1.73,7.02,2.58H31.96c-2.39,0-3.57-1.39-3.57-3.64V33.14c-.01-2.23,1.37-3.45,3.56-3.45h77.68c1.77.01,3.4,1.06,3.4,2.91l.02,48.17c-1.1.27-2.65-.34-2.93-1.5-.17-.7-.01-1.29-.33-1.76-.2-.3-.82-.56-1.48-.56l-21.47.02c-.9,0-1.66.54-1.66,1.44l-.09,14.07c-.84,1.65-.72,3.34-1.37,5.13l-.21-19.27c0-.67-.53-1.38-1.31-1.38l-22.44.05c-.98,0-1.21,1.72-1.21,2.75Z"/>
    <g>
      <rect class="cls-27" x="31.43" y="31.86" width="25.66" height="43.47"/>
      <g>
        <rect class="cls-29" x="33.72" y="34.03" width="21.19" height="39.18"/>
        <path class="cls-1" d="M49.64,39.71c1.96,2.61-7.6,1.94-9.44,1.88-.7-.02-1.15-.67-1.2-1.06-.07-.52.38-1.17,1.14-1.21,1.62-.08,8.95-.33,9.5.39Z"/>
        <path class="cls-7" d="M49.7,44.61c-.45,1.09-7.75.71-9.51.63-.71-.03-1.13-.61-1.16-.99-.05-.59.31-1.19,1.08-1.21,3.14-.07,6.08-.09,9.23.11.59.04.52,1.08.37,1.46Z"/>
        <path class="cls-18" d="M48.78,48.84h-8.57c-.66,0-1.16-.52-1.19-.92-.05-.56.33-1.17,1.06-1.17l8.33-.03c.77,0,1.21.15,1.35.72s-.1,1.41-.98,1.41Z"/>
        <g>
          <path class="cls-5" d="M39.95,65.37c-.16,1.4-3.94,1.36-4.13.13-.44-2.91-.47-5.73.01-8.6.22-1.32,3.88-1.33,4.08,0,.42,2.77.4,5.37.03,8.46Z"/>
          <rect class="cls-4" x="37.38" y="57.76" width=".92" height="6.86"/>
        </g>
      </g>
    </g>
    <g>
      <rect class="cls-31" x="23.79" y="84.54" width="40.95" height="25.65" transform="translate(-53.12 141.6) rotate(-89.98)"/>
      <g>
        <rect class="cls-13" x="33.67" y="79.09" width="21.18" height="36.46" transform="translate(-.15 .07) rotate(-.09)"/>
        <path class="cls-32" d="M48.78,90.17c-2.72.07-9.53.66-9.77-1.08-.07-.52.38-1.12,1.11-1.12l8.25-.05c.77,0,1.28.22,1.42.66.21.66-.11,1.58-1.01,1.6Z"/>
        <path class="cls-1" d="M49.8,92.74c-.02,1.63-6.98,1.04-9.64,1.04-.67,0-1.15-.65-1.15-1.03,0-.5.46-1.13,1.15-1.13h8.57c.65,0,1.08.63,1.07,1.12Z"/>
        <path class="cls-8" d="M48.57,86.47l-8.41.02c-.7,0-1.08-.68-1.13-1.06-.07-.54.3-1.15,1.07-1.16l8.26-.05c.67,0,1.2.3,1.38.76.22.56-.1,1.48-1.16,1.48Z"/>
        <g>
          <path class="cls-16" d="M39.95,109.8c-.16,1.44-3.95,1.4-4.14.08-.43-2.89-.46-5.72.07-8.58.23-1.25,3.79-1.25,4.02.03.49,2.74.41,5.36.05,8.48Z"/>
          <rect class="cls-15" x="37.38" y="102.59" width=".92" height="5.95"/>
        </g>
      </g>
    </g>
    <g>
      <path class="cls-27" d="M110.11,74.31c0,1.26-2.48.99-3.24.98l-21.66-.28-.09-41.41c0-1.05.8-1.73,1.73-1.73l21.77.03c.76,0,1.55.77,1.55,1.66l-.06,40.74Z"/>
      <g>
        <rect class="cls-37" x="87.35" y="34.04" width="20.66" height="39.16"/>
        <path class="cls-34" d="M103.05,40.18c.52,2.18-6.39,1.48-9.34,1.41-.76-.02-1.29-.4-1.34-.98-.04-.46.29-1.28,1-1.31,1.94-.08,9.33-.56,9.68.88Z"/>
        <path class="cls-21" d="M103.07,43.83c.51,2.26-6.16,1.49-9.34,1.5-.77,0-1.34-.57-1.37-1.07-.03-.63.5-1.27,1.31-1.25,3.18.08,9.1-.52,9.4.82Z"/>
        <path class="cls-22" d="M101.95,46.74c-.35,0,6.78,2.71-8.6,2.06-.6-.03-.88-.6-.92-.92-.07-.63.48-1.16,1.24-1.16l8.27.02Z"/>
        <g>
          <path class="cls-36" d="M93.43,65.4c-.12,1.23-3.82,1.39-4.09.33-.7-2.74-.42-5.93-.16-8.9.12-1.39,4.04-1.3,4.24.07.42,2.77.32,5.39,0,8.5Z"/>
          <path class="cls-14" d="M90.94,57.72c1.19-1.66,1.32,8.19.12,6.98-.31-2.27-.08-4.47-.12-6.98Z"/>
        </g>
      </g>
    </g>
    <g>
      <rect class="cls-27" x="58.49" y="31.86" width="25.12" height="43.46"/>
      <g>
        <rect class="cls-6" x="51.51" y="43.28" width="39.15" height="20.68" transform="translate(17.43 124.67) rotate(-89.97)"/>
        <path class="cls-2" d="M76.42,43.81c.63,2.19-6.47,1.58-9.3,1.52-.85-.02-1.3-.6-1.34-1.07-.06-.74.53-1.23,1.34-1.24,2.03-.04,8.96-.38,9.3.8Z"/>
        <path class="cls-11" d="M75.36,46.77c-.28,0,6.64,2.58-8.53,2.02-.59-.02-.95-.59-1.03-.91-.09-.36.33-1.16.93-1.16l8.63.05Z"/>
        <path class="cls-24" d="M76.41,40.15c.63,2.13-6.39,1.39-9.24,1.42-.8,0-1.32-.47-1.38-.98-.08-.7.52-1.27,1.32-1.29,2.26-.07,8.89-.52,9.3.85Z"/>
        <g>
          <path class="cls-19" d="M66.78,65.35c-.22,1.55-4.13,1.58-4.37-.03-.42-2.81-.19-5.61.22-8.5.19-1.32,3.96-1.23,4.14.11.39,2.75.44,5.38,0,8.42Z"/>
          <path class="cls-33" d="M64.4,57.72c1.19-1.66,1.32,8.19.12,6.98-.31-2.27-.08-4.47-.12-6.98Z"/>
        </g>
      </g>
    </g>
  </g>
</svg>