<?xml version="1.0" encoding="UTF-8"?>
<svg id="Layer_1" data-name="Layer 1" xmlns="http://www.w3.org/2000/svg" viewBox="0 0 150 150">
  <defs>
    <style>
      .cls-1 {
        fill: #2f7b22;
      }

      .cls-2 {
        fill: #b67029;
      }

      .cls-3 {
        fill: #f7c46e;
      }

      .cls-4 {
        fill: #7baf2a;
      }

      .cls-5 {
        fill: #1495cd;
      }

      .cls-6 {
        fill: #347f24;
      }

      .cls-7 {
        fill: #b3681b;
      }

      .cls-8 {
        fill: #2a791f;
      }

      .cls-9 {
        fill: #75a628;
      }

      .cls-10 {
        fill: #2c761f;
      }

      .cls-11 {
        fill: #78ab29;
      }

      .cls-12 {
        fill: #7bae2a;
      }

      .cls-13 {
        fill: #040503;
      }

      .cls-14 {
        fill: #348025;
      }

      .cls-15 {
        fill: #317b20;
      }

      .cls-16 {
        fill: #7aaa2b;
      }

      .cls-17 {
        fill: #307d21;
      }

      .cls-18 {
        fill: #7bae29;
      }

      .cls-19 {
        fill: #2b8120;
      }

      .cls-20 {
        fill: #b86f27;
      }

      .cls-21 {
        fill: #74ac26;
      }
    </style>
  </defs>
  <path class="cls-13" d="M102.11,88.95c2.48-.58,3.64,8.52,4.34,10.64,1.77-2.1,9.55-8.86,11.49-7.38.27.21.45.79.23,1.32l-4.58,11.24c2.06-.33,8.73-.67,9.08.98.4,1.87-5,3.84-6.82,6.41,4.14.72,14.86,5.58,13.84,9.97-.76,3.25-8.63,3.58-11.73,3.78-10.8.71-21.35.17-32.03-1.14-10.01,1.53-26.59,2.73-36.51,2.08-5.33-.35-29.21-.7-29.18-8.01.03-6.42,15.85-7.89,20.81-8.15,1.89-.1,3.79.53,5.5-.36-.77-18.26,3.59-35.98,14.62-50.94-3.5.52-5.88,2.44-8.53,4.18l-6.5,4.28c-1.09.72-1.56,1.08-2.39,1.94-2.45,2.53-5.23,4.54-7.38,7.42-.36.48-1.68.38-1.85-.28-2.74-10.72,2.71-21.13,13.4-25.2-4.25-.37-8.3,1.08-12.54,1.47-2.33.22-10.02,3.55-12.27,4.94-.5.31-1.31.11-1.59-.13-.37-.3-.46-.93-.37-1.58.82-5.69,4.05-10.34,8.61-13.75,7.63-5.7,17.26-6.89,26.1-2.65-2.38-3.34-5.9-4.83-8.9-7.31-.3-.25-.24-.77-.34-.97-.18-.39-1.13.28-1.42.15-3.95-1.75-7.83-2.89-12.22-2.87-.76,0-1.48-.43-1.52-1.15-.12-2.35,12.5-7.13,22.87-3.78,7.11,2.3,11.64,8.2,14.1,15.31,2.31-5.97,5.91-10.74,11.36-13.59,6.99-3.66,15.39-2.87,21.42,2.09.44.42.73.86.75,1.26s-.36,1.3-1.02,1.27c-3.24-.15-6.05,1.02-9.05,1.99-1.2.39-1.55.77-2.41,1.57-2.05,1.89-4.74,2.91-6.59,5.15,13.2-5.83,31.94,3.1,32.88,17.7.04.57-.24,1.12-.5,1.32s-.97.49-1.38.2c-2.61-1.83-9.95-4.93-12.7-5.21-4.77-.48-9.28-2.01-14.33-1.34,9.9,3.92,16.58,14.04,12.54,24.08-.32.65-.83.92-1.5.87-.42-.03-5.12-6.2-7.83-8.23l-6.19-4.62c-1.02-.76-2.21-1.39-3.51-1.98,4.74,7.36,2.93,15.35-2.86,21.31-.42.43-1.11.4-1.51.25-.32-.12-.77-.62-.73-1.24.14-2.29-.87-4.35-.98-6.51-.06-1.16-.26-1.52-.66-2.5l-5.3-12.71c-8.71,16.31-10.49,32.74-4.28,49.83,2.07.9,4.05.25,6.15.26,5.95.01,11.59,1,17.35,2.21-1.64-2.4-7.43-6.02-7.36-7.55.12-2.46,8.53-.57,10.67-.15l-3.04-10.59c-.14-.49.05-1.08.24-1.37,1.35-2.06,8.22,5.24,9.75,6.97.4-2.02,2.77-10.88,4.28-11.23Z"/>
  <g>
    <g>
      <path class="cls-5" d="M66.65,115.87c-1-.5-1.06-2.22-1.73-3.26,1.87-.9,3.43.08,5.2.26,6.06.6,12.06.72,18.17,2.92-2.63,2.15-5.14,3.97-6.11,7.24-15.82,1.87-31.57,2.13-47.46.3-1.91-.22-15.33-2.34-11.29-5.81s13.12-3.98,18.27-4.7c1.66-.23,3.26-.95,4.94-.25.12,1.14.22,2.24.22,3.43-1.31.32-3.51-.35-4.06.78-.25.51.03,1.48.81,1.49l24.9.13c.62,0,1.15-.18,1.43-.59.22-.33.23-1.11-.3-1.46-.82-.53-1.95.04-2.97-.47Z"/>
      <path class="cls-2" d="M49.19,105.79c-.93-2.27.08-5.05-.05-7.49,1.29.21,5.92,1.46,5.6-.6-.2-1.32-3.65-.21-5.3-1.88.12-2.38.47-4.69,1.34-6.87,1.56.38,3.11,1.05,4.34-.37l-3.91-1.87c.34-2.17,1.06-4.3,1.68-6.53.69-.34,3.39,1.3,3.56-.22.15-1.29-3.12-1.09-2.31-3.08.68-1.66,1.25-3.17,2.13-4.87,1.42.72,2.65.95,4.27,1.03-3.09,12.84-3.45,18.16-.96,30.83.18.92-.28,1.38-.88,2.17.54.03,1.32-.22,1.55.45,1.06,3.16,2.22,6,3.58,9.46l-14.7.11c-.21-2.7-.38-5.14-.26-7.86,1.01.03,5.8,1.49,5.88-.35.07-1.72-4.11-.21-5.58-2.07Z"/>
      <g>
        <path class="cls-3" d="M126.81,120.33c6.06,5.45-39.18,3.09-41.81,1.84,1.99-3,4.6-4.74,7.48-6.24,10.08-5.17,25.95-3.14,34.34,4.41Z"/>
        <path class="cls-14" d="M113.14,111.45c-7.56-1.11-14.18-1.12-21.41,2.34-2.25-2.65-4.6-4.65-7.25-7.08,3.66-.6,7.8,2.24,9.17,1.6s-2.6-8.72-2.64-11.32c2.65.96,6.86,7.65,7.73,7.74.45.05.91-.35.98-.96.41-3.69,1-7.15,2.68-10.65,1.54,2.46,1.78,11.18,2.69,11.49.34.12.69-.12.92-.47,2.27-3.33,4.82-6.39,8.56-8.32-.46,2.14-4.76,10.8-4.48,11.51.6,1.53,5.58-1.37,8.3-.32l-5.27,4.43Z"/>
      </g>
    </g>
    <g>
      <path class="cls-16" d="M98.01,50.13l-1.15-.6c-.43-2.12-1.27-3.95-2.53-5.48-4.83-1.39-9.77-.97-14.81,1.28-.6.12-.79-.36-.84-.99,6.54-5.03,14.93-5.88,22.46-2.72,5.56,2.47,10.42,6.62,12.04,13.18-3.22-1.09-6.05-2.59-9.25-3.27-.54-1.48-.68-3.26-2.05-3.91-.74-.35-1.17.64-1.17,1.05,0,.44.35,1.35.16,1.74-.71.61-2.09-.16-2.86-.27Z"/>
      <path class="cls-12" d="M57.48,44.33c.29.64.12,1.07-.56.98-5.88-2.4-13.76-5.04-16.37,2.63-.27,1.17-.8,1.9-1.6,2.18l-2.92.75c-.62-.63.92-2.86-.39-3.26-1.61-.49-2.36,2.87-3.05,3.79l-8.65,3.45c1.91-6.74,7.22-11.45,13.52-13.72,6.98-2.52,14.5-1.34,20.01,3.19Z"/>
      <path class="cls-1" d="M98.01,50.13c-1.65-.24-3.31.09-4.61-.75-.85-.55-.94-1.87-1.67-2.58-.52-.51-1.06-.6-1.62-.19-.76.56.3,1.89-.12,2.76-6.41-.44-12.56.63-18.49,3.09,1.85-3.51,4.29-6.17,7.19-8.12.8.42,1.71-.12,2.73-.47,4.2-1.46,9.12-2.44,13.34-.54,2.02,1.54,2.29,4.73,3.25,6.8Z"/>
      <path class="cls-6" d="M57.48,44.33c2.65,2.17,5.36,4.25,6.64,7.56-6.24-2.32-12.11-2.92-18.35-2.57.5-1.14,1.17-2.62-.02-2.72-1.55-.13-1.68,2.08-2.57,2.7-1.22.85-2.96.53-4.23.82-.08-1.42,3.02-7.06,4.63-7.51,4.4-1.22,8.94-.23,12.94,1.73.35.17.89.23.96-.02Z"/>
      <path class="cls-17" d="M85.77,33.63c-3.91,4.8-4.72-.1-6.76,3l1.57,1.42c-4.1,3.58-7.41,7.38-10.67,12.1-.25-2.95-.77-6.23.66-8.91.47-.07.14.59.14.55.39-3.48,6.21-12.51,10.25-11.89,1.62.25,5.33,1.92,4.79,3.74Z"/>
      <path class="cls-10" d="M45.68,65.35c-6.02-6.04,2.22-12,8.74-11.91l-.29-.41c3.52-.39,6.91.22,10.38,2.02-4.38,1.92-8.39,3.63-12.27,6.2-.5-1.09-.87-2.14-1.67-1.92-2.9.8,2.37,3.1-4.9,6.03Z"/>
      <path class="cls-15" d="M65.94,40.1c.99,3.32,1.73,6.65.86,10.08-3.47-5.57-6.89-10.24-11.67-14.36.81-.72,2.37-.55,2.48-1.48.28-2.38-4.96,1.64-6.87-1.97-.3-1.41,1.8-1.97,2.98-2.2,6.36-1.24,9.9,5.4,12.22,9.94Z"/>
      <path class="cls-18" d="M65.94,40.1c.08.41-.32.38-.51-.02-1.67-3.52-4.3-7.05-7.97-8.83-2.17-1.05-5.07-.01-6.72,1.12-.71-.2-1.22-.41-1.56-.82-.75-.91,1.97-1.1,1.38-2.32-.65-1.35-4.11.47-5.17.12-2.77-.89-5.29-1.92-8.07-2.43,12.76-4.57,24.74.07,28.63,13.19Z"/>
      <path class="cls-4" d="M54.13,53.02c.73.03,1.1.31.15.74-4.06.08-8.34,2.24-9.68,6.29-.59,1.79.67,3.75,1.08,5.3-1.09,1.47-1.09-1.78-2.73-1.19-1.32.48-.63,2.74-.71,4.13l-5.89,5.25c-1.18-9.73,5.44-18.35,14.93-19.89,1.09-.18,2.02-.22,2.85-.62Z"/>
      <path class="cls-8" d="M85.04,53.97c3.26,1.24,4.99,3.43,5.19,6.55.27,2.09-.19,3.41-1.39,3.97-4.4-1.16-1.21-5.63-3.84-4.79-.38.12-.72.93-1.23,1.29-3.65-2.2-7.55-4.52-11.59-5.88,4.32-2.79,8.81-2.44,12.86-1.15Z"/>
      <path class="cls-9" d="M85.77,33.63c-1.3-1.17-2.73-2.44-4.69-2.86-4.58-.97-9,8.21-10.29,11.31-.32-.33-.13-.64-.21-.85,1.54-5.39,4.86-10.03,9.57-12.86,5.33-3.2,11.79-3.46,17.17-.13-2.41.72-4.6,1.36-6.77,2.6-1.45-.46-3.5-1.71-4.48-.98-.21.16-.59.59-.32.99.47.71,1.36.85,1.92,1.53-.35.98-1.37.88-1.9,1.25Z"/>
      <path class="cls-11" d="M85.04,53.97c5.15,1.64,9.55,4.72,11.77,9.76,1.31,2.98,2.1,6.19,1,9.44-1.81-2.37-3.67-3.94-5.54-5.8-.42-.93.75-3.42-.72-3.72-1.01-.21-1.35,1.62-2.09,1.61-.26,0-.47-.53-.62-.77.51-1.71.82-3.87.26-5.83-.67-2.34-2.95-3.73-4.91-4.47.3-.43.65-.21.86-.21Z"/>
      <path class="cls-19" d="M78.13,63.26c1.04,2.24,2.01,7.19.5,9.33-.37.52-.58.65-1.31.38.24-.65.67-1.28-.12-1.71-.37-.2-1.22.28-1.66.11-.79-.3-1.41-2.35-.87-3.11.66-.92,1.47-1.62.55-2.61l-1.99.54c-1.25-2.92-2.6-5.74-3.27-8.84,4.27.32,6.2,3.19,8.17,5.9Z"/>
      <path class="cls-21" d="M77.31,72.97c.93-.76.73-2.05,1.05-3.28,1.26-4.86-1.2-4.42-.23-6.44,3.45,4.76,3.42,11.37-.55,16.09-.67-2.57-1.86-5.07-.27-6.38Z"/>
      <path class="cls-20" d="M61.09,71.67c-1.17-.4-2.36-.59-3.72-1.39.67-2.33,1.95-4.32,3.43-6.21,1.02.43,1.8.7,2.6,1.16l-2.32,6.44Z"/>
      <path class="cls-7" d="M64.26,63.21c-.33.53-2.12-.59-2.01-1.22,1.13-1.5,3.35-5.69,5.35-4.9-1.08,1.95-2.03,4.01-3.34,6.12Z"/>
    </g>
  </g>
</svg>