<?xml version="1.0" encoding="UTF-8"?>
<svg id="Layer_1" data-name="Layer 1" xmlns="http://www.w3.org/2000/svg" viewBox="0 0 150 150">
  <defs>
    <style>
      .cls-1 {
        fill: #fc9b16;
      }

      .cls-2 {
        fill: #f89a14;
      }

      .cls-3 {
        fill: #080705;
      }

      .cls-4 {
        fill: #fc9c12;
      }

      .cls-5 {
        fill: #fd9e13;
      }

      .cls-6 {
        fill: #0d0c0c;
      }

      .cls-7 {
        fill: #fd9b13;
      }

      .cls-8 {
        fill: #0a0a0a;
      }

      .cls-9 {
        fill: #fc9b0d;
      }

      .cls-10 {
        fill: #fc9810;
      }

      .cls-11 {
        fill: #fd9c14;
      }

      .cls-12 {
        fill: #0f0f0f;
      }
    </style>
  </defs>
  <g>
    <rect class="cls-10" x="92.45" y="44.5" width="25.04" height="2.74" transform="translate(7.97 106.81) rotate(-55.75)"/>
    <g>
      <path class="cls-2" d="M76.23,48.25c0,1.13-.48,1.66-1.14,1.76-.83.12-1.48-.47-1.48-1.51l.03-22.81c0-.78.63-1.15,1.07-1.23.63-.1,1.48.34,1.48,1.23l.04,22.56Z"/>
      <rect class="cls-5" x="43.65" y="33.18" width="2.75" height="25.18" transform="translate(-17.79 32.47) rotate(-33.51)"/>
      <path class="cls-11" d="M29.32,92.55l-19.36-1.68c-.82-.07-1.28-.58-1.43-1.1-.2-.73.42-1.61,1.42-1.53l20.23,1.76c.66.06.95.94.95,1.33,0,.62-.63,1.31-1.81,1.21Z"/>
      <path class="cls-4" d="M140.46,90.8l-19.83,1.75c-.82.07-1.43-.3-1.65-.88-.21-.54.22-1.56,1.18-1.65l19.68-1.8c.78-.07,1.46.43,1.61.92s-.1,1.57-.99,1.65Z"/>
      <g>
        <path class="cls-3" d="M142.12,102.02H7.77c-1.09.01-1.44-.93-1.34-1.51s.77-1.13,1.65-1.13l30.11-.03c-1.18-14.58,5.36-28.33,17.5-36.13,10.91-6.93,24.18-7.87,35.76-2.13,14.13,7.36,22.07,22.24,20.61,38.34l30.33-.02c.69,0,1.09.67,1.16,1.04.1.51.03,1.59-1.43,1.59Z"/>
        <path class="cls-1" d="M109.49,99.32l-68.75.09c-1.94-20.94,13.36-39.17,35.03-39.58,5.35-.1,10.01,1.6,14.87,3.66,12.81,6.91,20.38,20.62,18.86,35.84Z"/>
      </g>
    </g>
    <g>
      <rect class="cls-6" x="18.91" y="107.08" width="112.18" height="2.55"/>
      <rect class="cls-12" x="35.08" y="115.3" width="79.87" height="2.67"/>
      <rect class="cls-8" x="73.7" y="102.01" width="2.67" height="44.39" transform="translate(-49.18 199.22) rotate(-89.99)"/>
    </g>
  </g>
  <rect class="cls-9" x="24.99" y="53.21" width="2.78" height="24.31" transform="translate(-43.08 53.35) rotate(-58.21)"/>
  <rect class="cls-7" x="111.95" y="64.61" width="23.49" height="2.72" transform="translate(-16.44 69.69) rotate(-29.59)"/>
</svg>