<?xml version="1.0" encoding="UTF-8"?>
<svg id="Layer_1" data-name="Layer 1" xmlns="http://www.w3.org/2000/svg" viewBox="0 0 150 150">
  <defs>
    <style>
      .cls-1 {
        fill: #060607;
      }

      .cls-2 {
        fill: #010101;
      }

      .cls-3 {
        fill: #98c0e7;
      }

      .cls-4 {
        fill: #0b1729;
      }

      .cls-5 {
        fill: #030203;
      }

      .cls-6 {
        fill: #0b172a;
      }

      .cls-7 {
        fill: #fcbad1;
      }
    </style>
  </defs>
  <path class="cls-1" d="M114.59,102.27c-8.86,14.68-24.7,22.97-41.34,22.34-16.56-.63-31.49-9.96-39.36-24.95-8.45-16.09-8.15-35.44.95-51.19,8.28-14.33,22.9-22.82,39.42-23.1,16.66-.28,31.68,7.81,40.35,22.14,10.07,16.64,10.23,37.77-.02,54.76Z"/>
  <g>
    <path class="cls-7" d="M111.12,102.93c-8.09,11.96-21.17,18.93-35.5,19.18l-.05-94.2c14.64.06,27.77,7.22,35.76,19.28,11.13,16.8,11.26,38.78-.21,55.75Z"/>
    <path class="cls-2" d="M95.53,89.14c.03-.45-.28-.74-.52-.78s-1.07-.14-1.07.37v14.15c-.02,1.38-.99,2.14-2.1,2.28-1.24.15-2.43-.75-2.44-2.25l-.07-14.54c-1.84-.25-3.45.33-5.29-.41l6.29-19.79c.15-.46-.07-.8-.35-.92-.18-.08-.53.09-.66.48l-3.87,11.7c-.32.98-1.49,1-2.17.84-.95-.22-1.6-1.3-1.26-2.4l4.54-14.37c.78-2.46,2.89-4.13,5.52-4.13h5.04c3.09-.02,5.15,1.86,6.01,4.67l4.28,13.99c.33,1.07-.43,1.94-1.1,2.21-4.02,1.64-4.07-10.77-7.07-13.24l5.8,20.9c-1.5.77-3.04.26-4.86.47l-.17,14.56c-.02,1.41-1.23,2.23-2.23,2.25-1.57.03-2.24-1.17-2.25-2.72-.04-4.54-.28-8.86-.01-13.31Z"/>
    <circle class="cls-5" cx="94.77" cy="51.73" r="5.2"/>
  </g>
  <g>
    <path class="cls-3" d="M73.14,122.05c-14.71-.45-28.02-8.55-35.65-21.25-9.16-15.26-9.61-34.24-1.14-49.86,7.44-13.72,21.16-22.5,36.79-23.01v94.13Z"/>
    <path class="cls-6" d="M55.37,83.49c0-.84-.15-1.24-.55-1.29-.33-.05-.96,0-.96.6v19.67c0,1.54-.93,2.52-2.27,2.69-1.22.15-2.76-.67-2.77-2.33l-.04-34.65c0-.52-.58-.73-.81-.69-.2.04-.47.22-.47.7l-.03,12.13c0,1.19-1.29,1.87-2.2,1.78-1-.11-1.96-.91-1.96-2.13l.05-14.04c.01-3.67,2.95-6.48,6.62-6.62,3.14-.11,6.02-.07,9.21,0,3.21.06,6.58,2.31,6.6,5.69l.08,15.44c0,1.08-1.26,1.65-1.98,1.67-4.56.13-.29-12.64-3.06-15.02l-.39,35.81c-.02,1.4-1.05,2.08-2.05,2.24-1.06.17-2.85-.43-2.86-1.88l-.17-19.77Z"/>
    <circle class="cls-4" cx="54.7" cy="51.79" r="5.24"/>
  </g>
</svg>