<?xml version="1.0" encoding="UTF-8"?>
<svg id="Layer_1" data-name="Layer 1" xmlns="http://www.w3.org/2000/svg" viewBox="0 0 150 150">
  <defs>
    <style>
      .cls-1 {
        fill: #f8e6c4;
      }

      .cls-2 {
        fill: #ef6313;
      }

      .cls-3 {
        fill: #469c11;
      }

      .cls-4 {
        fill: #060503;
      }

      .cls-5 {
        fill: #edce94;
      }

      .cls-6 {
        fill: #e08d3b;
      }

      .cls-7 {
        fill: #f36a15;
      }

      .cls-8 {
        fill: #8d4818;
      }

      .cls-9 {
        fill: #ae591f;
      }

      .cls-10 {
        fill: #f46a14;
      }

      .cls-11 {
        fill: #f8e7c4;
      }

      .cls-12 {
        fill: #faecd1;
      }

      .cls-13 {
        fill: #f36b15;
      }

      .cls-14 {
        fill: #f36a17;
      }

      .cls-15 {
        fill: #fbe3b8;
      }

      .cls-16 {
        fill: #cd9b55;
      }

      .cls-17 {
        fill: #763a0a;
      }

      .cls-18 {
        fill: #f8e8c7;
      }

      .cls-19 {
        fill: #cc9d58;
      }

      .cls-20 {
        fill: #db8939;
      }

      .cls-21 {
        fill: #070503;
      }

      .cls-22 {
        fill: #cd9b54;
      }

      .cls-23 {
        fill: #f36913;
      }

      .cls-24 {
        fill: #f9ebce;
      }

      .cls-25 {
        fill: #050403;
      }

      .cls-26 {
        fill: #eabe02;
      }

      .cls-27 {
        fill: #e7c991;
      }

      .cls-28 {
        fill: #5daf0d;
      }

      .cls-29 {
        fill: #f16916;
      }

      .cls-30 {
        fill: #f36d17;
      }

      .cls-31 {
        fill: #fdfdfd;
      }
    </style>
  </defs>
  <path class="cls-4" d="M100.29,117.2c-7.26,3.37-14.92,3.35-22.02,0H24.21c-1.08,0-2.43-.41-2.44-1.62l-.12-17.08c-.89-.21-2.32-.04-2.57-.95-.46-1.68-.23-3.53-.13-5.25.12-1.95,4.17-.71,4.93-1.53l-.03-31.25c-5.34-2.12-6.25-8.78-3.84-12.84,2.89-4.85,5.87-9.39,9.42-13.85.64-.8,1.15-2.54,2.57-2.54l85.3-.03c1.32,0,2.56.41,3.23,1.37,3.43,4.93,6.41,9.93,9.51,15.03,2.45,4.02,1.23,10.96-4.33,13.11l.04,31.26c1.81.28,3.26-.2,4.97.38.55,2.03.7,4.44-.05,6.44-.5.67-1.71.38-2.49.78l-.08,16.7c0,.99-.89,1.84-1.85,1.84l-25.98.03Z"/>
  <g>
    <path class="cls-31" d="M52.12,92.45c-.3,1.33-4.27,1.25-4.67-.03-1.39-.63-1.16-5.26-.53-6.3,2.36-1.1,4.21-2.15,4.73-4.87.25-1.31.29-13.17-.08-13.75-1.85-2.97-1.87,6.75-1.57,7.85.61,3.52-1.25,6.75-3.75,3.46l-.12-10.74c-.13-1.11-1.14-1.16-1.56-.28l-.2,11.33c-.98,1.53-2.81,1.34-3.5-.4l-.2-11.18c-.32-.38-1.2-.44-1.47.04-.54.98-.23,13.71.36,15.01.84,1.86,2.44,2.63,4.2,3.47.58,1.74,1.11,5.36-.5,6.37l-.44.85c-1.67.33-4.97.36-4.75-1.69-.77-1.19-5.28,0-7.46-.63l-.04-31.05c2.09-.95,3.78-1.93,5.05-3.97,1.86,2.93,4.74,4.21,7.83,4.25s5.91-1.34,7.92-4.18c1.74,2.89,4.62,4.25,7.74,4.2s5.92-1.3,7.88-4.21c1.94,2.98,4.69,4.25,7.83,4.22s5.95-1.38,7.95-4.22c1.86,2.76,4.66,4.17,7.72,4.23,3.25.06,6.1-1.46,8.07-4.25,1.9,2.84,4.62,4.25,7.6,4.25,3.15,0,6.09-1.25,7.98-4.32,1.37,1.67,2.62,2.93,4.78,3.83l-.03,30.95c-.91.69-2.25.51-3.44.19-1.37-13.35-12.37-23.92-26.03-23.93-13.71-.02-24.74,10.52-26.05,24.05-2.13.66-12.07-1.04-11.26,1.44Z"/>
    <g>
      <path class="cls-22" d="M43.26,92.43l.85.49.14,15.07c.6,1.03,2.03.84,2.26-.46l.08-14.5.85-.62,4.67.03c.21,1.59,8.91.43,10.92.94.62.69.42,2.11.2,2.88h-9.86c-.77-.01-1.15.49-1.14,1.07s.38.95,1.16,1.02l10.5.03c1.19,6.87,4.89,12.35,10.43,16.52l-50.3-.04.05-16.47,12.82-.04c.66-.04,1.08-.33,1.27-.66.17-.3.1-1.38-.45-1.38l-16.37-.07c-.38-.9-.5-2.06.03-2.92l15.49-.14c.65,0,1.16-.22,1.32-.59s0-.71-.1-1.01c.34.53.91.9,1.74.89l3.45-.06Z"/>
      <path class="cls-16" d="M125.87,114.85l-21.33.03c5.33-4.39,9.03-9.67,10.43-16.45l10.91-.03v16.45Z"/>
      <path class="cls-19" d="M128.79,96.23l-13.2.02c-.25-.92-.16-1.86.17-2.97h12.98c.33.93.36,1.66.05,2.95Z"/>
      <path class="cls-25" d="M47.45,92.42l-.07,14.87c0,1.28-.78,2.1-1.83,2.19-.78.06-2.11-.38-2.12-1.47l-.16-15.57c-.02-1.86.42-3.76-.08-5.86-2.94-.83-4.99-3.29-4.99-6.38l-.02-11.85c0-1.09.61-1.84,1.52-1.94.6-.06,1.8.21,1.82,1.15l.2,11.27c0,.53,1.87.58,1.88.1l.13-11.01c.01-1.1,1.03-1.61,1.79-1.55,1.01.08,1.47.84,1.48,1.96l.1,10.6c0,.49,1.89.43,1.93-.06.24-3.55.11-6.98.13-10.53,0-1.29.81-2.01,1.87-1.95.96.06,1.61.77,1.61,1.93l-.04,11.87c-.01,3.15-2,5.56-5.07,6.39-.27,2.11-.14,3.99-.07,5.85Z"/>
      <g>
        <ellipse class="cls-15" cx="89.37" cy="93.33" rx="23.93" ry="23.93"/>
        <g>
          <path class="cls-21" d="M100.9,107l-23.09.06c-1.64,0-3.04-1.49-3.66-2.46-2.89-4.51,3.76-5.39-1-8.64-1.36-.93-.8-2.82.34-3.99-.82-4.74,1.44-9.1,5.64-11.57,5.66-3.33,12.93-3.47,18.83-.74,5.24,2.42,7.45,7.18,7.29,12.61.04.88,2.11,2.36.41,3.43-.79.5-1.5.98-1.7,1.91-.24,1.15.14,1.7.73,2.89,1.2,2.43-.6,6.5-3.79,6.51Z"/>
          <g>
            <path class="cls-6" d="M102.99,90.9l-27.29.11c-.66-2.9.65-5.51,2.77-7.42,5.31-4.77,16.64-4.98,21.68.24,1.7,1.81,2.95,3.74,2.84,7.06Z"/>
            <path class="cls-20" d="M101,104.77l-23.01.05c-1.02,0-1.75-.98-2.1-1.58-.43-.74-.38-1.53.29-2.65l25.81.1c.92,0,1.05,1.56.94,2.12-.12.63-.65,1.96-1.93,1.97Z"/>
            <path class="cls-17" d="M92.86,96.52c2.15-.52,4.21.27,6.22.08.69-.06,1.44-.29,2.06,0,.48.22,1.05,1.08.51,1.95l-24.34.11c-.51,0-.75-1.43-.39-1.55s.95-.84,1.56-.79c2.15.2,4.12-.03,6.27-.09,1.51-.04,2.8,1.42,4.27,1.59,1.37.15,2.44-.96,3.84-1.3Z"/>
            <path class="cls-26" d="M94.86,93.32c.37.17.57.44.55.83l-2.17.41c-1.41-.01-2.53,1.26-3.98,1.42-1.55.17-2.99-1.6-4.59-1.59-1.47,0-2.82.37-4.15.18-1.16-.49-.91-1.06.35-1.2l13.98-.05Z"/>
            <path class="cls-28" d="M93.24,94.56c.55,0,1.62-.75,1.62-1.24,2.96-.01,6.03-.24,9.25.19.38.89-.74,1.28-1.24,1.55-.6.33-1.15-.04-1.78-.37.1.05-7.57-.14-7.86-.13Z"/>
            <path class="cls-3" d="M80.87,93.37c-.23.36-.34.77-.35,1.2-1.29-.18-2.64-.14-3.83.83l-2.36-1.06c-.47-.21.25-.97.74-1.02,2.07-.2,3.94.06,5.8.05Z"/>
          </g>
        </g>
      </g>
    </g>
    <g>
      <path class="cls-30" d="M94.52,32.79c1.17-.36,2.34,5.11,2.22,5.4-.14.34-.34.6-.68.77-.18-.27-.38-.23-.49-.11-.14.15-.6.53-.53.83l1.95,8.43-13.22-.05-1.48-15.31c4.26-.35,8.22-.03,12.22.03Z"/>
      <path class="cls-12" d="M55.48,32.8c.2.06.39.13.52.26.21.21-1.29,4.97-1.59,5.78-.04.1-.25.14-.51.15-.4.35-.93.86-1.02,1.62-.78,2.51-1.4,4.86-2.5,7.45h-13.19s7.1-15.3,7.1-15.3c3.8-.11,7.51-.13,11.21.04Z"/>
      <path class="cls-14" d="M67.87,32.73c.21.04.41.11.55.23.25.22-.21,6.48-.47,6.68-.16.12-.36.19-.58.23-.19,2.71-1.03,5.36-1.49,8.3l-12.96-.12c.47-3.36,2.16-6.53,1.88-8.95-.07-2.02.56-4.85,1.94-6.31,3.7-.2,7.43-.29,11.13-.06Z"/>
      <path class="cls-12" d="M96.06,38.96l-1.54-6.17c3.57.05,7.14-.37,11.01-.06l6.98,15.34-12.96.04-2.66-8.01c-.11-.54-.68-.84-.84-1.14Z"/>
      <path class="cls-24" d="M68.68,40.41l-.65-.51c-.03-.79.21-6.68.47-6.91.15-.13.36-.2.58-.24l11.01-.04,1.41,15.4-13.15.04c-.29-2.7.2-5.21.33-7.73Z"/>
      <path class="cls-13" d="M128.08,47.9c-4.39.62-8.47.08-12.83.24l-4.45-8.92c-1.08-2.17-2.28-4.12-3.09-6.45,3.73-.22,7.16-.25,10.89-.03l9.49,15.16Z"/>
      <path class="cls-10" d="M34.77,48.04c-4.42.13-8.54.28-12.74-.1,3.11-5.62,6.45-10.38,10.21-15.25,3.39-.04,6.55-.21,9.7.11l-7.17,15.24Z"/>
      <path class="cls-2" d="M128.41,50.44c1.26,1.24.24,3.96-.9,5.27-2.63,3.02-7.89,2.97-10.33.32-1.37-1.49-2.12-3.45-1.55-5.68l12.78.09Z"/>
      <path class="cls-29" d="M90.45,57.97c-4.2-.11-7.15-3.4-6.48-7.48l13.29-.18c.42,2-.12,3.89-1.27,5.32-1.21,1.52-3.09,2.4-5.54,2.34Z"/>
      <path class="cls-7" d="M32.97,55.67c-2.64,3.13-7.94,2.95-10.3.33-1.39-1.54-1.79-3.36-1.4-5.58l12.9-.1c.6,1.98.09,3.81-1.2,5.34Z"/>
      <path class="cls-23" d="M65.6,50.25c.74,2.13-.09,4.27-1.46,5.74s-3.44,2.09-5.67,1.94c-3.92-.25-6.69-3.74-5.72-7.61l12.85-.07Z"/>
      <path class="cls-11" d="M112.77,50.32c1.21,4.08-2.33,7.68-6.4,7.66-2.05,0-3.84-.78-5.09-2.19s-1.85-3.36-1.35-5.42l12.84-.05Z"/>
      <path class="cls-1" d="M75.12,57.98c-4.36.17-7.68-3.22-6.92-7.58l13.15-.07c.91,3.96-2.04,7.49-6.24,7.65Z"/>
      <path class="cls-18" d="M50.01,50.34c.97,4.27-2.38,7.53-6.41,7.62s-7.48-3.21-6.74-7.54l13.15-.07Z"/>
      <rect class="cls-27" x="106.94" y="74.49" width="30.87" height="2.38" transform="translate(46.64 198.02) rotate(-89.98)"/>
      <rect class="cls-5" x="11.81" y="74.53" width="30.86" height="2.28" transform="translate(-48.45 102.85) rotate(-89.95)"/>
      <path class="cls-9" d="M69.08,32.75l-.4,7.66c-.37-.31-.84-.48-1.32-.53l.51-7.15c.4.02.81.02,1.21.02Z"/>
      <path class="cls-8" d="M56.74,32.79c-.53,2.14-1.13,4.26-1.94,6.31l-.91-.1,1.59-6.19c.42.02.85,0,1.26-.01Z"/>
    </g>
  </g>
</svg>