<?xml version="1.0" encoding="UTF-8"?>
<svg id="Layer_1" data-name="Layer 1" xmlns="http://www.w3.org/2000/svg" viewBox="0 0 150 150">
  <defs>
    <style>
      .cls-1 {
        fill: #023d26;
      }

      .cls-2 {
        fill: #65320c;
      }

      .cls-3 {
        fill: #124826;
      }

      .cls-4 {
        fill: #67360a;
      }

      .cls-5 {
        fill: #216d3a;
      }

      .cls-6 {
        fill: #88b02d;
      }

      .cls-7 {
        fill: #fbfbfc;
      }

      .cls-8 {
        fill: #b66d22;
      }

      .cls-9 {
        fill: #367b2f;
      }

      .cls-10 {
        fill: #b4b3b3;
      }

      .cls-11 {
        fill: #894d15;
      }

      .cls-12 {
        fill: #040604;
      }

      .cls-13 {
        fill: #03462e;
      }

      .cls-14 {
        fill: #204106;
      }

      .cls-15 {
        fill: #36650c;
      }

      .cls-16 {
        fill: #117c54;
      }

      .cls-17 {
        fill: #0c3e1f;
      }

      .cls-18 {
        fill: #fcfcfc;
      }

      .cls-19 {
        fill: #b9732a;
      }

      .cls-20 {
        fill: #347930;
      }

      .cls-21 {
        fill: #4f671e;
      }
    </style>
  </defs>
  <path class="cls-12" d="M134.34,128.02l-9.39.15-109.12-.15c-.91,0-1.33-.56-1.42-1-.16-.77.32-1.54,1.25-1.55l9.24-.06c.97-5.03,4.96-8.42,10.22-8.24l-.09-9.66-19.19-.04c-1.13,0-1.85-1.48-1.31-2.45l9.39-17.03c-2.09-.73-6.67.56-7.54-.94-.31-.53-.29-1.31.09-1.93l10.6-17.63c-2.02-.65-5.79.48-6.52-1.03-.27-.56-.3-1.19.09-1.82l9.21-15.02c-1.3-.4-2.33,0-3.63-.11-.94-.08-2-1.08-1.42-2.16l11.52-21.38c.35-.65.63-1.17,1.28-1.36.56-.16,1.35.1,1.78.87l11.62,21.29c.36.65.26,1.39.06,1.85-.68,1.55-3.21.49-4.81,1.08l5.02,7.83c.95-3.81,2.89-6.51,6.29-8.35-2.73-6.08.1-12.53,6.3-14.69-.56-4.7,1.22-8.8,4.82-11.04,3.78-2.36,8.65-2.17,12.07.83,2.91,2.55,3.81,6.26,3.5,10.11,6.98,2.98,9.95,10.75,6.21,17.76,7.13,2.88,9.69,11.03,6.34,17.68.2.5,1.03.87,1.81.86l8.04-14.51c-1.29-.44-3.61.27-4.29-.69-.24-.34-.6-1.16-.27-1.77l10.21-18.62c.27-.49.85-.73,1.24-.83s1.04.12,1.38.71l10.64,18.05c.49.83.62,2.18-.26,2.66-1.09.58-2.27.1-3.65.51l9.08,15.15c.38.63.15,1.53-.12,1.92-.87,1.22-4.11.29-5.58.92l9.44,15.03c.45.71.46,1.42.22,1.91-.9,1.83-4.56.6-7.05,1.21l7.73,13.65c.37.65.29,1.57-.04,2.13-.24.4-.85.77-1.65.78l-16.8.07.04,8.41c5.49-.74,10.34,2.45,11.08,7.97,2.32.66,7.45-.89,7.63,1.3.04.45-.41,1.4-1.29,1.41Z"/>
  <g>
    <path class="cls-7" d="M109.71,117.38c-3.53-.24-6.49.31-8.95,2.68-1.56-2.3-3.73-3.14-6.35-3.38-.78-.14-1.02-1.45-1.6-1.99-3.78-3.49-9.21-3.59-13.61-.45-.43-2.9-.38-5.51-.5-8.61,3.22-.38,5.8-1.85,7.81-4.46,3.06,1.52,6.16,1.55,9.18.17-.69,2.29-3.58,4.59-3.09,6.41.12.44.59,1.09,1.4,1.09l15.82.09-.1,8.45Z"/>
    <path class="cls-18" d="M50.56,119.69c-2.41-2.07-4.88-2.61-8.03-2.32-.15-3.31-.2-6.51,0-9.9h16.63c.67,0,1.18-.25,1.43-.52.44-.48.68-1.29.32-1.99l-1.79-3.46c.8-.54,1.76-.71,2.84-1.11,2.1,3.05,5.12,5.13,9.22,4.94l-.62,10.56c-3.54-2.5-7.61-3.01-11.55-1.61-1.78.63-2.69,2.16-4.15,3.14-1.26.84-2.98.7-4.29,2.27Z"/>
    <g>
      <g>
        <path class="cls-20" d="M112.24,119.54c.02-1.36,1.95-1.28,2.22-.02,1.11.83,2.22.37,3.34.26,3.73-.36,7.11,1.84,7.57,5.67l-45.95.03c.06-2.66-.56-5.21.02-7.78.41-1.83,3.26-2.63,4.92-3.02,3.73-.86,6.77,1.1,8.04,4.69,7.01-1.35,6.17,3.99,8.19,4.19.7.07,3.32-5.31,9.3-3.39,1.03.33,1.77.05,2.35-.63Z"/>
        <path class="cls-9" d="M37.18,119.54c.2-.38.38-.37.55.03.17-1.34,1.87-1.31,2.2-.04,2.43,1.33,6.55-1.09,9.63,2.75,1.96,2.44,2.15-2.11,4.68-1.95,1.97.13,2.44-1.07,3.58-2.2,3.49-3.46,9.48-2.53,12.56.99,0,2.31.07,4.14-.3,6.39l-42.49-.04c.56-3.5,3.72-5.92,7.2-5.66.94.07,1.79.43,2.39-.26Z"/>
      </g>
      <g>
        <path class="cls-16" d="M105.8,91.59c.17-.92.99-1.76,2.45-2.52,2.37-2.17,2.47-3.09-.05-.2-1.43,1.59-2.54,1.9-3.32.94-.74.19-2.17.1-2.93-.22-.67-.28-1.44-2.19-1.02-2.79,1.65-2.19,2.1-4.77,2.63-7.4.49-2.46,2.97-4.12,3.56-6.45.25-.76.95-1.38,2.12-1.85,2.82-2.72,2.26-2.42-1.67.89l-1.22-.48-5.18-.22,8.58-15.49c.32-.58.16-1.29-.08-1.67-.7-1.09-2.94-.42-4.34-.69l8.38-15.4,8.97,15.13c-1.17.76-3.63-.09-4.3.93-.24.37-.46,1.09-.1,1.67l9.34,15.27c-1.22,1.08-5.37-.51-5.97,1.34-.13.39-.12.9.2,1.41l9.63,15.59c-2.06.65-6.02-.27-6.91,1.04-.28.42-.29,1.07.07,1.71l7.89,14.17-36.71-.03,9.98-14.67Z"/>
        <path class="cls-11" d="M114.45,119.52l-2.22.02.09-10.37c0-.49,2.05-.49,2.05-.02l.08,10.37Z"/>
        <path class="cls-13" d="M105.8,91.59c-.11-.68-.5-1.24-.92-1.77,3.27-.84,4.83-5.14,6.04-4.1,1.45,1.24-3.39,5.77-5.12,5.87Z"/>
        <path class="cls-1" d="M107.12,72.97l-.77-1.44c2.29-.66,4.1-3.85,5.1-3.67,2.44.45-2.26,5.49-4.33,5.11Z"/>
        <path class="cls-10" d="M101.95,74.31c.22-.54.7-.28,1.22-.3.66-.02-.17,1.36-.67,1.42-.29.04-.67-.8-.54-1.12Z"/>
      </g>
      <g>
        <path class="cls-5" d="M27.14,85.67c-.23-.32-.27-.64-.06-.94,2.23-.36,4.1-1.26,5.59-2.71-1.97,1.41-3.59,2.09-6.06,2.09-1.43,0-4.99-1.34-4.5-3.07l8.22-14.09.05-1.7c1.83-.63,3.4-1.54,4.72-2.74-3.12,2.36-4.53,2.39-7.95.9-1.74-.76.78-.49,0,.89-.32.57-3.5,1.03-3.09-.18l9.15-14.83c.38-.62.43-1.98-.28-2.15-1.6-.4-3.07.15-4.85-.45l9.99-18.11,9.82,18.05c-1.43.86-4.33-.33-4.85,1.14-.14.39-.25,1.03.05,1.52l8.41,13.76c-4.18,1.99-6.04,5.49-6.78,9.06-.85,4.13,1.2,7.87,3.31,10.8-2.12,3.68-3.48,7.93-1.07,12.28,1.72,3.11,4.85,5.92,9.18,6.16.67,1.37,1.57,2.29,1.83,3.55l-40.32.05c2.77-5.6,5.73-10.62,8.72-15.89.66-1.17,1.34-2.2.8-3.38Z"/>
        <path class="cls-3" d="M27.14,85.67c-2.49,0-5.13-.4-7.72-.22.47-2.11,1.9-3.07,2.68-4.41,6.31,5.12,9.49-.4,11.19-.16.34.05.58.56.49.9-.8,2.89-7.11,3.89-6.65,3.89Z"/>
        <path class="cls-17" d="M30.32,66.96c1.46-4.39-9.68-.08-6.27-2.83.44.66,2.07.75,2.34.09-.17-.48-.96-.92-.85-1.19.15-.37.48-.74.72-.9.49-.33,1,.21,1.45.58,3.49,2.88,6.97-1.68,7.89-1.35,1.56.56-.16,3.26-3.89,4.14-.75.18-1.11.99-1.39,1.48Z"/>
        <path class="cls-8" d="M39.86,112.61c.08,2.3.15,4.61.07,6.92l-2.2.04c-.44-1.71-.49-3.55-.17-5.52.07-.48.08-1.37.11-1.88.3-1.32,2.18-.85,2.18.44Z"/>
        <path class="cls-4" d="M39.86,112.61l-2.18-.44c.07-1.31-.47-3.05,0-4.43.2-.52,1.91-.53,2.17-.05.29,1.52-.04,3.51.01,4.91Z"/>
        <path class="cls-4" d="M37.73,119.57c-.09,0-.18,0-.55-.03.14-1.69-.33-3.99.38-5.48l.17,5.52Z"/>
      </g>
      <g>
        <path class="cls-19" d="M75.58,100.78c.27,8.09,1.17,16.13,1.21,24.43-1.39.37-2.78.53-4.11-.06.34-8.43.66-16.46,1.61-24.45.55-1.17.9-1.15,1.29.09Z"/>
        <path class="cls-2" d="M75.58,100.78c-.43-.06-.86-.09-1.29-.09l.1-7.69c.03-2.61-.42-5.1.69-7.4l.51,15.17Z"/>
        <g>
          <path class="cls-6" d="M75.59,56.44c-.56-.72-1.18-.73-1.86-.04l-.63,12.93c-2.15-1.38-5.13-7.42-7.01-5.86-.32.27-.49.98,0,1.54l7.01,8.05-.93,19.31c-3.32-3.3-5.83-6.43-8.71-9.64-.49-.54-1.15-.63-1.57-.36-.55.35-.74,1.21-.24,1.78l10.29,11.69-.45,6.75c-3.71.66-6.47-1.72-8-4.83-.41-.84-1.8.11-2.33.32-3.88,1.57-8.31.73-10.81-2.44s-3.13-7.71-.16-11.15c.54-.63,1.69-1.69.76-2.54-2.89-2.64-4.67-6.28-3.58-10.43.87-3.3,3.71-6.21,7.99-7.12-1.7-3.2-1.81-5.63-.83-8.56.84-2.52,3.65-4.03,6.19-5.44-.86-2.73-2.66-5.61-1.17-8.72,2.52-5.26,6.05-4.57,6.96-5.6.71-.81-2-5.57,2.34-9.57,2.03-1.88,5.24-2.87,8.15-1.63,4.21,1.79,5.63,6.61,4.13,10.89,1.03,1.09,2.43.86,3.59,1.59,5.3,3.32,6.24,10.55,2.39,15.4-.4.51-.31.96-.15,1.25.52.96,4.95-.65,7.77,5.31,1.9,4.03,1.02,8.2-1.64,12.32,4.09.5,6.1,2.91,7.33,5.55,1.76,3.76-1.43,6.85-2.4,9.48.6,3.49,2.45,7.32-.99,10.63-5.48,5.28-10.29.45-11.43.78-1.06.3-2.27,5.22-7.43,4.78.54-4.18-1.66-9.22-.19-13.23,1.62-4.42,10.26-10.51,8.04-12.23-.32-.25-.98-.36-1.48.2l-7.27,8.19c-.41-2.81-.64-5.25-.75-7.92l-.9-21.42Z"/>
          <path class="cls-21" d="M75.59,56.44c-.56-.43-1.27-.41-1.86-.04l.22-8.19c0-.57.55-.99.96-.85.21.07.56.41.56.85l.11,8.23Z"/>
          <path class="cls-14" d="M91.1,88.29c-1.05,2.24-4.59,3.53-5.23,2.16-.25-.54.15-1.32.92-1.34,2.63-.07,2.89-2.9,3.97-2.23.42.27.6.85.33,1.41Z"/>
          <path class="cls-15" d="M61.65,55.14c1.86-.12-.8,2.67-1.47,4.61-1.73-1.39-.8-3.13.44-4.14.33-.27.77-.45,1.03-.46Z"/>
        </g>
      </g>
    </g>
  </g>
</svg>