<?xml version="1.0" encoding="UTF-8"?>
<svg id="Layer_1" data-name="Layer 1" xmlns="http://www.w3.org/2000/svg" viewBox="0 0 150 150">
  <defs>
    <style>
      .cls-1 {
        fill: #754593;
      }

      .cls-2 {
        fill: #6d3482;
      }

      .cls-3 {
        fill: #ee88d7;
      }

      .cls-4 {
        fill: #1c1d25;
      }

      .cls-5 {
        fill: #060607;
      }

      .cls-6 {
        fill: #6d3e8a;
      }

      .cls-7 {
        fill: #dd75ca;
      }

      .cls-8 {
        fill: #050505;
      }

      .cls-9 {
        fill: #ef87cc;
      }

      .cls-10 {
        fill: #030304;
      }

      .cls-11 {
        fill: #e1e1e2;
      }

      .cls-12 {
        fill: #edeeee;
      }

      .cls-13 {
        fill: #f48fd1;
      }

      .cls-14 {
        fill: #131321;
      }

      .cls-15 {
        fill: #32333c;
      }

      .cls-16 {
        fill: #e2e2e2;
      }

      .cls-17 {
        fill: #f18dd0;
      }

      .cls-18 {
        fill: #f08fdb;
      }

      .cls-19 {
        fill: #ebebeb;
      }

      .cls-20 {
        fill: #262739;
      }

      .cls-21 {
        fill: #3d3f54;
      }

      .cls-22 {
        fill: #202029;
      }

      .cls-23 {
        fill: #75428e;
      }

      .cls-24 {
        fill: #cecece;
      }

      .cls-25 {
        fill: #202028;
      }

      .cls-26 {
        fill: #d5d5d6;
      }

      .cls-27 {
        fill: #362551;
      }

      .cls-28 {
        fill: #6c4881;
      }

      .cls-29 {
        fill: #ef87d6;
      }

      .cls-30 {
        fill: #121522;
      }

      .cls-31 {
        fill: #f08cd9;
      }

      .cls-32 {
        fill: #653f81;
      }

      .cls-33 {
        fill: #7a3d94;
      }

      .cls-34 {
        fill: #6e4384;
      }

      .cls-35 {
        fill: #030203;
      }

      .cls-36 {
        fill: #763a96;
      }

      .cls-37 {
        fill: #ed89d6;
      }

      .cls-38 {
        fill: #f48cd2;
      }

      .cls-39 {
        fill: #222537;
      }

      .cls-40 {
        fill: #101220;
      }

      .cls-41 {
        fill: #1c1d26;
      }

      .cls-42 {
        fill: #653a7e;
      }

      .cls-43 {
        fill: #050407;
      }

      .cls-44 {
        fill: #6d3a8b;
      }

      .cls-45 {
        fill: #040404;
      }

      .cls-46 {
        fill: #8444a2;
      }

      .cls-47 {
        fill: #292a3d;
      }

      .cls-48 {
        fill: #62387a;
      }

      .cls-49 {
        fill: #f385d1;
      }

      .cls-50 {
        fill: #121623;
      }

      .cls-51 {
        fill: #1b2130;
      }

      .cls-52 {
        fill: #e17dd2;
      }

      .cls-53 {
        fill: #e9e9e9;
      }

      .cls-54 {
        fill: #75408e;
      }

      .cls-55 {
        fill: #1c1f29;
      }

      .cls-56 {
        fill: #6d3988;
      }

      .cls-57 {
        fill: #191e2f;
      }

      .cls-58 {
        fill: #7d4895;
      }

      .cls-59 {
        fill: #a5a6a6;
      }

      .cls-60 {
        fill: #5d3574;
      }

      .cls-61 {
        fill: #573176;
      }

      .cls-62 {
        fill: #e1e1e1;
      }

      .cls-63 {
        fill: #0e0f19;
      }

      .cls-64 {
        fill: #6a427f;
      }

      .cls-65 {
        fill: #ef92db;
      }

      .cls-66 {
        fill: #dedfe0;
      }

      .cls-67 {
        fill: #783e96;
      }

      .cls-68 {
        fill: #5b327c;
      }

      .cls-69 {
        fill: #763b8f;
      }

      .cls-70 {
        fill: #ad59bb;
      }

      .cls-71 {
        fill: #784793;
      }

      .cls-72 {
        fill: #dededf;
      }

      .cls-73 {
        fill: #f08cce;
      }

      .cls-74 {
        fill: #d3d3d5;
      }

      .cls-75 {
        fill: #e8e8e8;
      }

      .cls-76 {
        fill: #ececec;
      }

      .cls-77 {
        fill: #a859bc;
      }
    </style>
  </defs>
  <path class="cls-35" d="M13.69,122.26c-1.75,0-1.79-1.29-1.7-2.25.22-2.2-.43-4.39.39-6.34.64-.74,2.22-.37,3.31-.64l.06-34.31c0-2.91,4.08-1.23,6.77-1.84l-.05-24.84c-1.12-.24-3.25.41-3.7-.77-.21-.54-1.15-7.97.77-8.49l32.45-8.79,23.07-6.24,56.28,14.64c.31,3.02.53,6.06-.06,8.97-.55,1.15-2.86.47-4.22.65l-.05,24.94c3.85.57,7.08-1.35,7.09,2.19l.05,34c1.16.19,2.7-.19,3.5.48.61,2.52.38,5.24.14,7.84-.04.46-.92.79-1.56.79H13.69Z"/>
  <g>
    <path class="cls-21" d="M129.23,47.57c-.08.33-.2.81-.46.84-1.81.23-5.53.28-7.39.15-1.27.29-2.13.03-2.57-.78l-88.06.05-1.01.82c-2.62-.2-5.24-.22-7.86-.08l-1.08-.69c-.14-.97-.37-1.94-.05-3.04l54.22-14.8,54.09,14.1c.51,1.29.19,2.36.16,3.43Z"/>
    <path class="cls-30" d="M111.75,79.1l-.45.84-4.19.12.08,28.99-.83.51c-.59,1.13-1,.54-1.33-.54l.07-29.84c0-.23.19,4.42-1.06,4.03-.84,1.35-1.4.73-1.67-1.87-1.16-.43-1.51-1.17-1.05-2.24.17-3.67,2.16-7.86,3.96-11.18.19-.35.47-.65.77-.94s.66-.56,1.03-.81c1.72.39,3.47-.51,4.45-1.56,1.42-1.54.85-3.19.97-5.09.07-1.05,1.4-2.18.86-3.61,1.43-.22,2.39-.24,3.55-.07.25,7.16.32,13.93,0,20.98-.98.32-5.4-.37-5.14,2.3Z"/>
    <path class="cls-27" d="M94.14,66.17c1.27.45-1.22,5.66-1.71,6.08-.56.48-14.22.7-14.71.15-.13-.15-.22-.35-.29-.55-1.55,1.41-3.25.79-4.92-.11l-.03.56c-1.84.13-15.15.62-15.77.13-1.07-.84-2.63-5.23-1.27-6.23,1.51-.11,3.08-1.18,3.84-2.45l.95-.33,4.75,5.07c.06-1.95.62-2.83,1.69-2.65,1.97.83,4.28.13,5.48-1.61l.95-.02,2.07,3.55,1.68-3.44c.45-.72.94-.63,1.48.27,1.32,1.25,3.29,1.96,5.01,1.24,1.62-.71,1.65.26,1.67,1.68l4.39-4.33,1.01.17c.64,1.4,2.25,2.5,3.73,2.83Z"/>
    <path class="cls-14" d="M42.8,66.04c.24.05.47.11.69.21.52.25,2.15,5.29,2.37,6.33l-.41,1.12c.84,2.62,1.29,5.21,1.33,7.78l-.95.18c-.7-.07-1.48-.59-1.71-1.29.01-.2.05-1.24-.4-1.24h-5.81c0-.72-.48-1.79-1.28-2-1.39-.35-2.6.16-3.9-.36l.09-20.87c1.59-.2,2.71-.16,4.37-.11-.35,1.33.47,2.59.38,3.73-.15,1.88-.78,3.77,1.03,5.26.94.78,2.61,1.73,4.2,1.25Z"/>
    <path class="cls-61" d="M54.58,71.35c.48.5.37,1.02-.32,1.56l-.04,11.77c-.45,1.73-2.06,3.15-3.75,2.09s-4.38-10.4-5.02-13.08c-1.14-2.36-1.62-5.24-2.64-7.67,1.14-.35,2.54-1.33,3.19-2.41.3-.04.59-.06.88-.03,1.12.12,6.19,4.96,7.27,6.22l.45,1.54Z"/>
    <path class="cls-68" d="M104.19,63.74c.67.89,1.62,2.13,2.87,2.42-2.15,4.2-3.95,8.57-5.76,12.93.48,1.41.22,1.9-.63,3.22-1.78,2.78-5.39,2.83-5.82-.52l-.02-7.04c-.23-1.22-.4-2.4-.52-3.56-.14-.31-.35-.77-.17-.95,2.62-2.55,6.12-5.14,9.11-7.21l.93.71Z"/>
    <path class="cls-14" d="M55.44,66.18c.32,1.91.68,3.84,1.64,5.7l15.43-.15c2.34.46,2.75,1.24,1.23,2.35-5.9.08-11.79,0-17.66-.22-1.11-.85-1.62-1.68-1.51-2.51-2.89-2.6-5.56-5.47-8.59-7.73,1.08-1.79.43-3.9-.78-5.47-.34-.45.17-2.11.72-2.24,1.33-.33,2.96-.04,4.47-.05-.25,1.45.71,2.63.56,3.9-.2,1.66-.63,3.58.66,4.89.79.8,2.4,1.64,3.82,1.54Z"/>
    <path class="cls-14" d="M104.19,63.74c-.57-.03-1.2.19-1.76.66l-8.11,6.79c0,.74-.56,2.44-1.47,2.86l-15.95.03c-1.75-.69-1.19-2.02.54-2.24l14.56-.18,2.15-5.49c1.72.38,3.37-.73,4.25-1.85,2.14-2.72-.59-3.91,1.07-8.62l4.87-.03c1.15,3.1-2.39,5.11-.14,8.08Z"/>
    <path class="cls-40" d="M66.67,65.83c-1.01.96-.44,2.58-.94,4.19-2.64-1.48-4.33-4.88-6.45-6.29,1.85-3.08-1.45-4.39.06-7.88l4.6-.08c1.48,4.02-1.92,8.1,2.73,10.05Z"/>
    <path class="cls-63" d="M78.34,64.58c-1.27-.77-2.03,3.84-3.15,4.84l-3.03-5.21c2.25-3.27-.7-3.5.46-8.42h5.16c.74,3.15-1.46,6.87.57,8.79Z"/>
    <path class="cls-50" d="M90.41,63.34l-5.9,5.84c-.74-.53.23-3.62-1.16-3.36,1.26-.53,2.22-1.46,2.66-2.35,1.29-2.64-.87-2.34.45-7.61l4.28-.06c.78,2.72-1.06,5.93-.33,7.54Z"/>
    <path class="cls-51" d="M129.23,47.57c0,.7.15,1.32-.08,2.27l-9.76.07c-.17-.88-.25-1.56-.57-2.12l10.41-.22Z"/>
    <circle class="cls-18" cx="41.84" cy="61.49" r="2.52"/>
    <path class="cls-57" d="M30.76,47.84c-.13.46-.08,1.37-.48,1.86l-9.39.17c-.27-.8-.12-1.4-.08-1.99,3.28-.55,6.64-.05,9.95-.05Z"/>
    <circle class="cls-37" cx="94.68" cy="61.61" r="2.47"/>
    <circle class="cls-31" cx="81.88" cy="61.56" r="2.49"/>
    <circle class="cls-65" cx="68.45" cy="61.56" r="2.46"/>
    <circle class="cls-29" cx="108.12" cy="61.51" r="2.48"/>
    <circle class="cls-3" cx="55.15" cy="61.56" r="2.46"/>
    <path class="cls-42" d="M92.26,53.55c-2.49.25-4.43.16-6.92.04,1.05-1.36,2.14-2.2,3.42-3.34,1.29,1.1,2.32,1.88,3.5,3.3Z"/>
    <path class="cls-48" d="M40.93,53.6c-2.07.72-3.93.05-4.39-1.71,1.66-.01,3.13-.2,4.6-1.24.29.98.54,2.69-.21,2.95Z"/>
    <path class="cls-1" d="M104.17,53.62c-2.26.04-4.12.27-6.33-.13l3.45-3.21,2.88,3.34Z"/>
    <path class="cls-6" d="M52.04,53.28c.18-.03.28.06.32.24.1.46-5.84.61-6.29.22-.22-.19-.09-.4.23-.46l2.82-2.81,2.92,2.8Z"/>
    <path class="cls-60" d="M114.21,51.59c-.75,2.39-2.9,2.3-5.14,2.01-.16-1.05-.17-2.06.1-3.32,1.62,1.42,3.02,2.28,5.04,1.31Z"/>
    <path class="cls-16" d="M123.02,56.89l-3.57,1.91c-.35-1.64-.29-2.99-.09-4.81,1.31.87,2.11,1.44,3.66,2.9Z"/>
    <path class="cls-63" d="M70.78,57.56c-1.4-.56-2.92-.43-4.54-.12-.42.08-.54-1.51-.03-1.65,1.36-.35,2.72-.33,4.12-.16.73.09.94,1.47.45,1.92Z"/>
    <path class="cls-19" d="M124.16,68.06c-1.19.93-2.73,1.49-4.48,1.32.56-1.4,1.44-2.34,2.41-3.68l2.07,2.36Z"/>
    <path class="cls-11" d="M29.69,60.36c-.67.98-1.17,1.57-2.08,2.26-1.01-1.23-1.92-2.13-2.67-3.71,1.69-.12,2.9.74,4.75,1.45Z"/>
    <path class="cls-75" d="M29.44,52.17c-1.23,1.23-2.55,2-4.19,3.31-.53-1.14-.3-2.18-.21-3.45,1.47-.02,2.65-.21,4.4.14Z"/>
    <path class="cls-62" d="M30.46,76.78c-1.52.38-2.97.26-4.74.09.73-1.21,1.58-1.83,2.64-2.82.75.89,1.28,1.29,2.1,2.73Z"/>
    <path class="cls-12" d="M30.39,58.61l-3.45-1.59c1.07-1.21,2.15-1.93,3.39-2.87.33,1.51.32,2.64.06,4.46Z"/>
    <path class="cls-58" d="M79.61,53.41c-1.15.61-2.33.23-3.69.21-.09-1.3-.24-2.3.05-3.7,1.27,1.04,2.2,1.97,3.64,3.48Z"/>
    <path class="cls-72" d="M122.16,62.56c-1.16-.41-1.32-1.36-2.02-2.06,1.57-.75,2.79-1.38,4.53-1.72-.54,1.47-1.54,2.21-2.52,3.78Z"/>
    <path class="cls-19" d="M124.51,51.99c.26,1.24.36,2.22.02,3.44-1.53-1-2.72-2.04-4.05-3.3,1.4-.39,2.36-.04,4.02-.14Z"/>
    <path class="cls-53" d="M29.92,69.12c-1.66.4-3.12-.25-4.41-1.03.75-.89,1.23-1.51,2.16-2.22l2.25,3.25Z"/>
    <path class="cls-44" d="M107.01,49.9c.19,1.38.22,2.44-.02,3.77-1.41-1.1-2.44-2.26-3.56-3.62,1.25-.3,2.09-.13,3.59-.16Z"/>
    <path class="cls-34" d="M61.16,53.36c-.81.67-2.2.28-3.27.15,1.06-1.17,2.14-1.94,3.48-3.06.08.75.55,2.28-.21,2.91Z"/>
    <path class="cls-23" d="M74.15,53.64c-1.03.47-4.32.67-3.21-.75,1.32-.71,1.87-1.93,3.09-2.88.5,1.22-.01,2.44.12,3.63Z"/>
    <path class="cls-66" d="M28.23,71.34l-3.17,3.16c-.29-1.52-.12-2.66,0-4.19l3.18,1.03Z"/>
    <path class="cls-24" d="M123.77,76.88c-1.54.21-2.79.22-4.22-.13.55-1.15,1.12-1.85,2.03-2.34.85.8,1.52,1.19,2.19,2.47Z"/>
    <path class="cls-53" d="M124.5,74.47c-1.15-.91-2.04-1.89-2.91-3.19,1.16-.46,1.94-.64,3-.84.05,1.34.24,2.35-.09,4.04Z"/>
    <path class="cls-67" d="M46.69,50.03c-.86,1.26-1.83,2.22-3.17,3.27-.54-1-.37-2.11-.15-3.33,1.06-.05,1.82-.35,3.32.05Z"/>
    <path class="cls-14" d="M43.81,56.43c.28,1.31-2.12-.16-4.33,1.07-.52-.3-.56-1.5.04-1.62.84-.17,4.07-.49,4.29.55Z"/>
    <path class="cls-64" d="M65.82,53.45c-.64.37-1.98.47-2.58-.07-.56-.51-.24-1.74-.14-2.56.97.75,1.61,1.39,2.72,2.63Z"/>
    <path class="cls-56" d="M53.99,49.94c.29.85.29,1.55.06,2.49-1.07-.52-1.84-1.38-2.59-2.4.82-.32,1.39-.08,2.53-.09Z"/>
    <path class="cls-69" d="M58.74,50.11c-.62.91-1.53,1.41-2.59,2.38-.34-.72-.45-2,.14-2.41.54-.37,1.41-.3,2.45.03Z"/>
    <path class="cls-33" d="M86.2,50.07c-.73.9-1.62,1.45-2.64,2.34-.56-.66-.46-1.53-.2-2.49.92-.06,1.6-.3,2.84.14Z"/>
    <path class="cls-36" d="M93.97,50.07c.7.4.38,1.65.09,2.34-.98-.72-1.97-1.36-2.53-2.42.81-.15,1.62-.39,2.44.08Z"/>
    <path class="cls-46" d="M99.19,50.15l-2.72,2.2c-.4-.46-.64-1.75-.04-2.26s1.67-.2,2.77.06Z"/>
    <path class="cls-76" d="M30.45,66.46c-.49-.52-1.46-1.12-1.52-1.96-.05-.68.89-1.34,1.59-1.78.13,1.24.18,2.19-.06,3.74Z"/>
    <path class="cls-32" d="M35.22,53.47c-.64.65-2.36.34-2.42-.49-.08-1.16.95-1.06,1.41-.92s1.48.93,1.01,1.41Z"/>
    <path class="cls-54" d="M67.32,52.32c-.94-.8-1.62-1.37-2.19-2.23.74-.32,1.95-.49,2.3.13.31.55.22,1.61-.11,2.1Z"/>
    <path class="cls-71" d="M81.09,52.27l-2.22-2.12c.46-.39,1.53-.46,2.16-.13s.39,1.8.06,2.25Z"/>
    <path class="cls-26" d="M24.89,65.63v-3.16c.78.38,1.18,1.06,1.44,1.65.2.47-.62,1.17-1.44,1.51Z"/>
    <path class="cls-2" d="M71.41,50.14c-.52.67-1.1,1.41-1.92,1.87-.23-.69-.24-1.23-.12-1.78.09-.44.84-.4,2.03-.09Z"/>
    <path class="cls-24" d="M119.44,74.68c-.4-.52-.35-2.02.01-2.48.64.21,1.06,1.04,1.27,1.4.29.49-.93,1.34-1.28,1.08Z"/>
    <path class="cls-74" d="M119.29,66.01c-.1-1.27-.15-2.05.05-3.12.65.2,1.45.99,1.25,1.65-.17.56-.72,1.5-1.3,1.47Z"/>
    <path class="cls-11" d="M124.81,65.63c-.71-.1-1.45-.95-1.39-1.61.06-.59.65-1.47,1.33-1.48l.06,3.09Z"/>
    <path class="cls-28" d="M115.31,53.55c-.45-.46.98-1.94,1.59-1.55.38.24.16,1.15.12,1.41s-.69.34-1.71.13Z"/>
    <path class="cls-59" d="M30.42,74.41c-.61-.21-.97-.64-1.03-1.01-.09-.58.32-1.12,1.11-1.38.11.81.15,1.42-.08,2.39Z"/>
    <path class="cls-14" d="M52.04,53.28c.49-.29.64.76.38.76l-6.19.1c-.4,0-.5-.39-.39-.64.07-.15.23-.35.47-.22-1.58.61,7.31.62,5.74,0Z"/>
    <path class="cls-63" d="M74.15,53.64c-.87,1.05-2.71.37-3.79.33.02-.75.1-1.24.58-1.08,0,.2-.14.42-.04.76,1.22.15,2.22,0,3.25-.02Z"/>
    <g>
      <path class="cls-39" d="M72.52,71.73l4.92.11-1.03,1.41,16.73-.03c-.34-1.85.94-1.82,1.19-2.03,2.48,1.25.67,8.7,1.62,12.04.88-.07,2.47.6,3.12-.11,1-1.09,1.71-2.74,2.25-4.03-.03.35.12.92.63,1.06,2.55.69.53,3.62,2.09,3.05-.42,7.33.14,14.8.11,22.38l-58.03-.05-.04-16.81-.24-7.05c1.06-2.45-1.04-4.38-.38-7.96,1.87,3.84,3.39,7.87,5.11,12.01.33.79,1.52.41,1.99.27.65-.19.87-.99.88-1.85l.02-11.22c0-.75.9-1.12,1.14-1.57.52.46,1.46.83,1.91,1.86l17.54.04c-.37-.81-1.1-1.02-1.52-1.51Z"/>
      <path class="cls-14" d="M55.51,100.69l10.77.02c9.21.02,18.28.55,27.1-.33l-.69-1.7.23-12.19c.47-1.66.79-3.39.96-5.21.5.02,1.1.1,1.33.42.27.38.4.99.41,1.55l.04,17.52c0,1.16-.81,1.84-1.91,1.84l-40.2-.03c-.22-5.86-.08-11.44,0-17.2.01-.97.57-1.89,1.38-1.78l.07,16.81c0,.42.28.33.5.28Z"/>
      <path class="cls-7" d="M93.35,73.67l.06,11.06-11.75,8.5c-2.86.59-3.35-3.15.08-3.56-.59-.32-.86-.77-.82-1.35,1.11-1.61,1.5-3.93,2.92-5.43l8.69-9.2.82-.02Z"/>
      <g>
        <path class="cls-77" d="M92.53,73.69l.32.47c-2.7,3.32-5.61,6.54-8.71,9.66l-2.21,4.45-1.01.04c.52.6.38,1.2-.41,1.78-2.07,2.34-4.03,2.68-5.63-.42-.49,2.18-1.9,2.92-3.87,1.63-.25,1.06-.92,1.65-1.72,2.32,0,1.5-.35,2.69-2.06,2.48l-.77,3.29,16.09.06.5.83.48-.83,9.28.08.58.84c-.36.25-.72.48-1.11.66s-.76.34-1.14.37c-2.74.2-5.47.25-8.21.3-8.77.16-18.3.13-26.82-.19l-.59-.83-.2-27.06,21.37.02,15.85.03Z"/>
        <g>
          <path class="cls-49" d="M80.92,88.31c.67.11,2.09.88,1.63,1.67-.5.87-1.95.55-2.61,1.27.24,1.08,1.27,1.28,1.73,1.97,0,.29-.18.74-.14,1.06.13.97,1.93-.05,2.02.57.15.96-.94,1.04-1.05,1.99-.14,1.19,1.78.34.54,3.44l-17.29.04c-.3-1.54-.2-2.69.9-3.67-.42-.79-1.21-.85-1.52-1.85,1.02-.67,1.75.23,2.93.64.52-.92.25-1.77.54-2.72,1.62-.14,1.41-1.92,2.15-2.77.75.16,1.52,1.61,2.33,1.14,1.51-.88.5-3.02,2.13-2.62.32.08.44.48.5,1.22.07.86,2.39,1.86,2.96,1.18.83-.99,1.68-1.76,2.24-2.57Z"/>
          <path class="cls-73" d="M75.65,79.16c.01,2.36.53,7.09-.84,7.09-1.16,0-.62-6.14-.5-7.6.04-.48.68-.44.87-.34.22.12.47.41.47.85Z"/>
          <path class="cls-9" d="M59.61,89.81c.54-1.01,5.15,2.16,4.97,2.82-.46,1.7-5.6-1.64-4.97-2.82Z"/>
          <path class="cls-38" d="M69.39,87.92c-.6-1.42-2.37-4.01-1.71-4.62.18-.16.71-.59.94-.22.26.41,3.41,5.64.77,4.84Z"/>
          <path class="cls-13" d="M80.79,84.19c.04.61-.95,3.68-1.82,3.68-1.55,0,0-2.54.47-3.55.24-.53,1.31-.81,1.35-.13Z"/>
        </g>
      </g>
      <g>
        <path class="cls-70" d="M93.89,81.3c-.32,6.88.14,12.8-.5,19.09l-10.35-.09c-.57-.31-.71-.92-.42-1.81-1.1-.78-1.25-1.85-.4-2.93-1.61-.6-2.32-1.67-.56-2.33l-.1-.96,11.01-8.01c-.16-3.49-.08-6.93.24-10.31l.53-.28c.6-.01.55,7.38.54,7.63Z"/>
        <path class="cls-17" d="M85.92,94.3c-.55.38-1.02.26-1.17-.02-.65-1.29,1.67-1.49,4.18-3.79.34-.31.9-.11,1.01.11s.14.77-.24,1.04l-3.79,2.66Z"/>
      </g>
    </g>
    <g>
      <rect class="cls-55" x="14.06" y="115.4" width="121.76" height="4.6"/>
      <path class="cls-47" d="M44.12,80.37l.56.13c.28,9.41.32,18.89.12,28.43-.38,1.19-1.52,1.74-3.42,1.64,20.57-.15,41.25-.17,62.04-.05l.51.83c.21-.01.21.09.05.28l-.07.56c-18.08,0-36.11.1-54.09.34l-1.86.53c-3.33-.38-6.8.14-10.33-.09l.28-33.85c.04-.32.13-.8.36-.83,1.36-.17,5.74-.27,6.47.74.45.63.13,1.14-.62,1.33Z"/>
      <path class="cls-20" d="M111.75,79.1c1.05,11.16.05,22.5.51,34.02l-6.45.21-57.42-.2c.81-.6,1.91-.85,3.3-.75,17.37-.04,34.71-.1,52.02-.16l.27-.57c-.04-.08-.02-.19-.05-.28l.72-.82c1.39.16,2.76.13,4.1-.08-1.32.14-2.12-.16-2.4-.92l-.08-30.42,5.48-.03Z"/>
      <path class="cls-52" d="M103.98,111.64c.17.35.61.44,1.06,1.17l-56.66.3-.43-.05c.93-1.26,2.79-1.45,4.59-1.45l51.43.02Z"/>
      <path class="cls-43" d="M106.35,109.55c.75.07,3.02-.28,3.24.65.42,1.8-3.38,1.16-5.65,1.15l-52.63-.1c-1.79,0-10.39.91-10.78-.26-.19-.55.05-1.28.73-1.39.98-.15,1.84.08,2.71-.18l.16-29.06c.44.01.94-.08,1.36.12.39.18.3.78.34,1.17l.85.44c.23,7.46.32,14.91.26,22.36,18.73.3,37.53.4,56.41.28l-.25-19.25.93-2.29.23-4.07c.04-.65.67-.94,1-.89.59.08.66.59.66,1.28l-.07,29.58c0,.35.34.52.49.45Z"/>
      <g>
        <rect class="cls-15" x="9.63" y="87.42" width="34.1" height="17.5" transform="translate(-69.5 122.84) rotate(-89.99)"/>
        <g>
          <circle class="cls-8" cx="26.99" cy="104.05" r="6.49"/>
          <circle class="cls-22" cx="26.97" cy="104" r="4.35"/>
        </g>
        <g>
          <circle class="cls-45" cx="27.03" cy="88.42" r="6.26"/>
          <circle class="cls-4" cx="27.06" cy="88.34" r="4.15"/>
        </g>
      </g>
      <g>
        <rect class="cls-15" x="114.23" y="79.11" width="17.68" height="34.12"/>
        <g>
          <circle class="cls-10" cx="122.48" cy="104.01" r="6.53"/>
          <circle class="cls-25" cx="122.51" cy="104" r="4.37"/>
        </g>
        <g>
          <circle class="cls-5" cx="122.54" cy="88.4" r="6.26"/>
          <circle class="cls-41" cx="122.53" cy="88.37" r="4.18"/>
        </g>
      </g>
    </g>
  </g>
</svg>