<?xml version="1.0" encoding="UTF-8"?>
<svg id="Layer_1" data-name="Layer 1" xmlns="http://www.w3.org/2000/svg" viewBox="0 0 150 150">
  <defs>
    <style>
      .cls-1 {
        fill: #0c1323;
      }

      .cls-2 {
        fill: #040405;
      }

      .cls-3 {
        fill: #0d1423;
      }

      .cls-4 {
        fill: #151b2c;
      }

      .cls-5 {
        fill: #151928;
      }

      .cls-6 {
        fill: #010204;
      }

      .cls-7 {
        fill: #141b2e;
      }

      .cls-8 {
        fill: #111623;
      }

      .cls-9 {
        fill: #f8f8f8;
      }

      .cls-10 {
        fill: #faecd0;
      }

      .cls-11 {
        fill: #080807;
      }

      .cls-12 {
        fill: #151c2d;
      }

      .cls-13 {
        fill: #8682b9;
      }

      .cls-14 {
        fill: #fdfdfd;
      }
    </style>
  </defs>
  <path class="cls-1" d="M90.04,53.3c-1.19,1.13-.74,4.31-1.83,4.84-1.93.94-1.14-3.55-2.45-4.84s-4.8-.65-5.04-2.06c-.28-1.62,3.68-.73,5.05-2.1,1.28-1.27.55-4.98,2-5.12,1.65-.16,1.09,3.41,2.03,4.83,1.08,1.62,5.21.67,5.09,2.4-.1,1.51-3.34.6-4.85,2.04Z"/>
  <path class="cls-3" d="M118.71,36.89c-4.11.3-2.34,3.87-3.99,4.29-.54.14-1.13-.43-1.18-1.08-.33-4.41-3.93-2.51-4.43-3.99-.17-.51.62-1.16,1.21-1.18,2.05-.08,3.13-1.07,3.17-3.16,0-.41.3-.94.46-1.17.21-.3.74-.37,1.13-.14.77.47.38,3.02,1.3,3.8.84.71,3.21.47,3.52,1.46.19.59-.58,1.13-1.21,1.17Z"/>
  <path class="cls-4" d="M83.47,30.61c-1.05-.89-1.47-1.95-2.77-2.65l2.68-2.75,2.77,2.66c-1,.74-1.63,1.42-2.68,2.74Z"/>
  <rect class="cls-5" x="19.72" y="61.41" width="3.55" height="3.54" transform="translate(-38.81 34.6) rotate(-45.85)"/>
  <rect class="cls-8" x="64.19" y="67.96" width="3.48" height="3.48" transform="translate(-30 68.16) rotate(-45.67)"/>
  <path class="cls-14" d="M124.62,110.91l-.08,5.77-17.94-2.62c.1-1.93.56-3.51-.32-4.57-.04-2.1-.51-4.49,0-6.77,1.36-6.19,3.82-11.83,6.78-17.37l10.52-19.74,1.05,45.29Z"/>
  <path class="cls-14" d="M43.19,114.22l-15.48,2.05c-.19-.95-.14-1.78-.16-2.61-.02-.58.02-1.16.03-1.74.2-2.19.34-4.35.43-6.5l1.54-27.47c5.55,5.9,11.35,12.19,13.45,20.18,1.37,5.22.15,10.89.19,16.08Z"/>
  <g>
    <path class="cls-11" d="M60.69,51.87c.89-.13,1.62.14,1.78.48.14.31.36.99-.08,1.47-5.5,6.04-13.8,8.35-21.84,5.65-7.04-2.36-12.83-8.96-13.44-17.09-.49-6.6,1.97-12.85,6.49-17.19,7.54-7.25,18.54-6.51,19.05-4.52.17.65-.11,1.25-.86,1.59-7.15,3.14-10.82,11.09-8.74,18.5,2.09,7.43,9.51,12.27,17.65,11.11Z"/>
    <path class="cls-10" d="M57.38,54.64c-5.55,4.43-13.61,4.45-19.54.68-6.03-3.84-9.2-10.62-7.9-17.95,1.49-8.38,8.35-15.24,17.12-15.34-6.16,5.07-8.56,12.68-6.31,19.92s8.2,11.93,16.64,12.69Z"/>
  </g>
  <g>
    <path class="cls-13" d="M106.28,109.5c1.38-.13,1.82,1.08,1.31,3.64,10.7,1.55,16.05,2.33,16.05,2.33l.06-3.93.92-.61c.76-.77,1.27-.39,1.33.66l-.15,10.01c.88,1.65,1.1-.48.66-6.4l.89-1.53c1.06.52-.08,2.83.58,3.56,1.37,1.04,9.37,1.96,8.57,4.91-1,3.66-17.88,5.89-21.91,6.35-21.96,2.5-43.78,2.82-65.89,1.28-4.81-.33-35.77-2.89-35.24-8.01.29-2.77,8.37-3.85,10.78-4.94.42-.44-.09-2.02.61-2.25l.89.46c-1.13,12.12,1.16,6.92.58-.82.04-.66.58-.74,1.24-.53.64.18,1.03.7,1.19,1.55l13.67-1.81.79.82.92.48c-.28,6.41,1.27,4.4.92-.38l.93-.58c.18-1.42,3.73-1.43,4.09-.08,1.08.46.72,1.14.09,1.96-1.81,1.69-2.31,2.77-1.51,3.24,10.94.11,21.87.06,32.78-.15-.81-1.93-1.79-3.81-2.94-5.63,0-.54.31-.61.85-.32l1.13-.65c7.37-.25,14.75-.01,22.14.72v-7.63s.93-.65.93-.65c1.29-.11,1.78,1.12,1.49,3.69-.36,3.56-.3,7.07.19,10.53.36-2.72.42-5.59.19-8.6l.9-.67Z"/>
    <path class="cls-14" d="M103.51,104.55l-.02,9.39c-8.21-.55-16.2-1.49-24.18-1.18-2.83-3.21-5.2-6.77-7.47-11.05l31.67,2.84Z"/>
    <g>
      <path class="cls-2" d="M127.35,113.66c.05,2.52.02,5.07.21,7.82.07.94-.66,1.63-1.36,1.6-.76-.04-1.33-.59-1.31-1.57l.16-9.64c0-.43-.04-1.11-.42-.95l-.92-.3-.96-41.41-9.7,18.15c-4.23,6.95-6.18,14.09-5.87,21.42l-.89.72.17,8.77c.02.85-.65,1.41-1.29,1.4-2.8-.03.04-13.56-1.65-15.13l-.5.87-29.19-2.62c1.25,2.96,2.99,5.7,5.22,8.22l.27,1.73c-1.07-1.21,3.25,4.69,3.02,6.11-.08.51-.81.89-1.66.89l-31.58.06c-.87,0-1.57-.32-1.79-.98-.57-1.71,2.45-3.22,2.73-5.17l.24-1.55c2.7-3.25,5.17-6.68,7.41-10.28-1.8-.37-3.64-.53-5.5-.47l-.78-.95-4.61-.4c-.06.42-.2.42-.41.05-.2,3.43-.37,6.92-.49,10.48,1.11.73,1.33,2.56.04,3.2l-.1,4.44c-.02.76-.61,1.28-1.17,1.4-.64.14-1.47-.46-1.48-1.35l-.02-4.01-.91-1.06c1.66-11.7-.17-18.94-7.66-28.19-.72-.89-3.76-4.61-4.28-4.63l-1.38,24.59-.94.5c-.1,2.15-.25,4.32-.43,6.5,1.22.56,1.21,1.21-.03,1.74-1.15-.07,1.03,9.77-1.96,9.4-.74-.09-1.23-.71-1.18-1.58l.43-6.93,2-38.66c.05-.93-1.93-1.57-1.25-2.73.62-1.06,1.22-1.94,2.67-1.67,1.16.21,1.79,1.28,1.67,2.96,6.49,2.25,13.08,3.45,20.07,4.04,26.65,2.23,50.8-5.51,73.15-19.17-.3-1.46-.01-2.71.88-3.24,1.31-.77,2.35-.04,3.01.6,1.37,1.35-.66,2.49-.82,3.43l1.14,53.55Z"/>
      <g>
        <path class="cls-9" d="M51.41,100.4c2.57.15,5.11-.04,7.85.77-3.24,4.49-5.64,9.02-9.23,12.48l-4.09.08c.02-1-.34-2.24-.04-3.2.12-3.56.28-7.05.49-10.48.14.04.28-.06.41-.05l4.61.4Z"/>
        <g>
          <path class="cls-12" d="M79.05,117.1l-27.98.03c4.03-5.19,7.56-10.22,10.83-15.87,2.39-.08,4.47.33,6.89.52,3.14,5.26,6.36,10.07,10.26,15.33Z"/>
          <path class="cls-13" d="M45.91,110.53v-10.08c-.01-.36.25-.62.49-.41-.38,3.5.53,7.12-.49,10.48Z"/>
          <path class="cls-13" d="M27.58,111.92l.05-5.99c0-.34.1-.7.38-.51-.03.54.32,7.44-.43,6.5Z"/>
          <path class="cls-13" d="M51.41,100.4c-1.54-.09-3.32.5-4.61-.4,1.54.15,3.32-.52,4.61.4Z"/>
          <g>
            <path class="cls-7" d="M45.96,97.41c-1.98-4.03-3.29-7.9-5.92-11.25l-6.04-7.7c16.09,4.1,34.3,3.77,50.3-.03,15.31-3.64,23.62-7.81,37.37-14.91l-10.02,18.87c-3.29,6.2-6,12.35-7.84,19.18l-47.81-3.4c-3.37-.24-6.27-.76-10.04-.76Z"/>
            <path class="cls-6" d="M99.08,80.93c-14.34,7.74-30.32,10.75-46.25,6.14-.5-.15-.62-.44-.65-.64-.05-.27.58-.95,1.12-.82,15.3,3.57,31.06,1.33,44.9-6.08.6-.32,1.03-.07,1.33.29.19.23.11.81-.45,1.11Z"/>
          </g>
        </g>
      </g>
    </g>
  </g>
</svg>