<?xml version="1.0" encoding="UTF-8"?>
<svg id="Layer_1" data-name="Layer 1" xmlns="http://www.w3.org/2000/svg" viewBox="0 0 150 150">
  <defs>
    <style>
      .cls-1 {
        fill: #8f9294;
      }

      .cls-2 {
        fill: #0e7fcc;
      }

      .cls-3 {
        fill: #0467aa;
      }

      .cls-4 {
        fill: #272f3a;
      }

      .cls-5 {
        fill: #22a0e8;
      }

      .cls-6 {
        fill: #c9d6e4;
      }

      .cls-7 {
        fill: #060606;
      }

      .cls-8 {
        fill: #626a78;
      }

      .cls-9 {
        fill: #2874b7;
      }

      .cls-10 {
        fill: #0467ac;
      }

      .cls-11 {
        fill: #050708;
      }

      .cls-12 {
        fill: #040506;
      }

      .cls-13 {
        fill: #2973b5;
      }
    </style>
  </defs>
  <path class="cls-12" d="M100.41,123.77l-51.09-.02c-1.31,0-2.29-1.11-2.29-2.23l.03-6.44c.01-2.34,1.96-3.64,4.4-3.77v-63.07c-3.32-1.76-2.68-4.21-2.46-8.98.06-1.32,1.67-1.66,2.45-2.64-.57-4.08,1.59-9.88,6.58-10.1,11.26-.49,22.33-.26,33.64-.11,4.24.06,7.11,4.82,6.72,8.44-.22,2.04.53,2.23,1.76,3.15,1.44,1.09.7,3.56.89,5.19.25,2.18-.2,3.97-2.55,4.83l-.06,63.17c2.67.22,4.55,1.7,4.53,4.43l-.04,5.42c0,1.45-.93,2.71-2.53,2.71Z"/>
  <g>
    <path class="cls-2" d="M95.66,37.01h-41.46c-1.07-3.42.67-8.19,4.7-8.19h32.31c3.93,0,5.8,5.13,4.45,8.19Z"/>
    <path class="cls-9" d="M90.46,113.72c.2.16.39.33.53.54.92,1.37-4.56,6.1-5.74,6.94h-35.8v-7.48h41.01Z"/>
    <path class="cls-13" d="M88.1,39.57c5,2.01,3.37,4.71-1.33,5.72-11.84.13-23.6.05-35.3-.25.1-1.81-.35-3.66.24-5.62l36.38.15Z"/>
    <path class="cls-10" d="M85.25,121.2c-1.41-1.15,4.95-4.23,5.21-7.48h10.17v7.48h-15.38Z"/>
    <path class="cls-3" d="M51.48,45.04l35.24.07c1.28-.77,2.47-1.45,3.66-2.42-.49-1.42-1.59-2.11-2.27-3.12,3.35.01,6.76-.66,10.29.03.19,1.93.22,3.81-.08,5.85l-46.65.08c-.19,0-.22-.49-.19-.49Z"/>
    <g>
      <rect class="cls-6" x="53.93" y="47.94" width="42.11" height="63.45"/>
      <g>
        <path class="cls-7" d="M81.66,81.91l-.15-8.1c-2.78-.38-5.53-.09-8.48-.2-.78,1.55.94,5.4-2.32,5.38l-6.86-.04c-2.78-.02-2.11-4.29-2.01-8.28.12-4.53,3.85-7.73,8.42-7.26.96-1.15,1.85-2.08,3.1-3.27-1.48-1.71-6.02.93-6.9-2.57-.34-1.34.18-3.52,1.97-3.61,4.76-.24,9.37-.2,14.13,0,1.61.06,2.25,2.02,2.13,3.13-.45,4.07-5.62,1.45-6.94,3.07,4.8,5.14,1.82,2.58,6.63,3.26,4.27.61,7.03,3.88,7.02,8.17l-.02,10.1c0,1.18-.8,2.07-1.97,2.07h-5.86c-.93,0-1.86-.66-1.88-1.86Z"/>
        <path class="cls-1" d="M83.97,73.85c-.23-3.83-6.3-2.73-11.49-2.71-3.21.01-1.65,3.94-2.25,5.29-2.02.17-3.82.18-5.84.01-.13-1.91-.05-3.77-.02-5.75.05-3.24,2.7-5.23,5.88-4.8.79.11,1.61-.08,2.18-.51.39-.29.35-1.24.9-1.86.77-.87,3.78-1.04,4.31.08.9,1.88,1.81,2.61,4.09,2.3,3.13-.43,6.43.84,7,4.17.38,2.24.22,4.51.08,6.74-1.69.17-3.05.07-4.72.04-.18-.95-.06-1.85-.12-2.99Z"/>
        <path class="cls-4" d="M82.16,56.75c.12,1.01-11.46.52-13.15.37-.38-.04-.48-1-.14-1h12.85c.43-.01.43.47.45.63Z"/>
        <rect class="cls-8" x="85.45" y="77.72" width="2.06" height="5" transform="translate(4.62 165.16) rotate(-88.91)"/>
      </g>
      <g>
        <path class="cls-11" d="M75.51,98.17c-.55,4.16-4.02,6.84-7.73,6.7s-6.96-3.12-7.23-7.19c-.29-4.39,3.76-8.81,6.42-13.66.47-.85,1.79-.61,2.24.12l4.7,7.63c1.13,1.84,1.91,3.99,1.6,6.39Z"/>
        <path class="cls-5" d="M67.96,87.51c2.98,3.62,7.86,10.14,2.97,13.9-1.71,1.31-4.04,1.17-5.61.06-5.1-3.61-.02-10.25,2.64-13.96Z"/>
      </g>
    </g>
  </g>
</svg>